<?xml version="1.0" encoding="UTF-8"?>
<svg version="1.1" xmlns="http://www.w3.org/2000/svg" width="1024" height="1024">
<path d="M0 0 C0.84224121 0.42168457 1.68448242 0.84336914 2.55224609 1.27783203 C14.35096901 7.22869335 25.89984583 13.58489488 37.37109375 20.14086914 C44.96856443 24.46541449 52.67718565 28.53848303 60.44311523 32.55078125 C69.80313864 37.39285921 79.04723643 42.43591742 88.28369141 47.50878906 C92.76873912 49.97101012 97.25896407 52.42372229 101.75 54.875 C102.64436768 55.36339355 103.53873535 55.85178711 104.46020508 56.35498047 C111.70783839 60.30753525 118.97739102 64.21863634 126.25 68.125 C134.23692706 72.41573793 142.19481579 76.74976991 150.10571289 81.17895508 C156.59239499 84.79958199 163.13897893 88.30526829 169.6875 91.8125 C179.18256662 96.9004042 188.58818798 102.12424018 197.94799805 107.45629883 C203.41918536 110.56534993 208.92107109 113.58902097 214.5 116.5 C222.13877855 120.48641258 229.63180869 124.71163653 237.11425781 128.98339844 C242.03332097 131.78473557 246.96890734 134.53599896 251.97265625 137.18359375 C266.93452021 145.10538981 281.61824278 153.56530072 290 169 C290 169.66 290 170.32 290 171 C290.66 171.33 291.32 171.66 292 172 C293.03515625 174.51171875 293.03515625 174.51171875 294.0625 177.6875 C294.40410156 178.72261719 294.74570312 179.75773438 295.09765625 180.82421875 C299.52421707 196.40341331 296.38667469 213.22272701 288.6875 227.29296875 C275.31615865 248.74282883 251.08152224 259.10193148 229.30761719 270.19921875 C221.52688306 274.16576523 213.80031285 278.19613281 206.22998047 282.55517578 C201.74607741 285.11414058 197.15865943 287.43957217 192.53515625 289.734375 C184.07365306 293.93457352 175.71687234 298.31789783 167.375 302.75 C165.88038551 303.54218214 164.38575641 304.33433673 162.89111328 305.12646484 C153.6294141 310.04084353 144.41152558 315.02979051 135.22460938 320.08276367 C129.53937887 323.19727649 123.79300914 326.14320838 117.97216797 328.99462891 C112.55672705 331.66856319 107.27814435 334.5657586 102 337.5 C96.22308382 340.71006185 90.43622413 343.84458335 84.5 346.75 C77.3834108 350.24131716 70.3805889 353.94097835 63.39038086 357.67712402 C62.14563016 358.34242181 60.90036274 359.00675389 59.65454102 359.67004395 C51.37935914 364.07424378 51.37935914 364.07424378 43.34375 368.89453125 C40 371 40 371 37 372 C35.65739023 372.62497785 34.32502352 373.27214761 33 373.93359375 C32.20585693 374.3296582 31.41171387 374.72572266 30.59350586 375.13378906 C29.73764893 375.56401367 28.88179199 375.99423828 28 376.4375 C27.1035376 376.88706055 26.2070752 377.33662109 25.28344727 377.79980469 C18.68787329 381.12047487 12.14052113 384.52526088 5.61425781 387.97973633 C-1.15605364 391.56269027 -7.94898315 395.10069801 -14.75 398.625 C-15.87801025 399.20958984 -17.00602051 399.79417969 -18.16821289 400.39648438 C-24.42671852 403.63759745 -30.68860513 406.87209041 -36.953125 410.1015625 C-37.61776764 410.44433228 -38.28241028 410.78710205 -38.9671936 411.14025879 C-42.31021506 412.86417917 -45.65407184 414.58644123 -48.99951172 416.30566406 C-54.46163603 419.11581161 -59.91736667 421.93065354 -65.3046875 424.8828125 C-96.98268998 442.22116874 -131.82338067 453.16765657 -167.6875 443.0625 C-190.18464833 435.76376376 -211.43476341 422.83724459 -232.18823242 411.6965332 C-232.84799072 411.34292725 -233.50774902 410.98932129 -234.1875 410.625 C-235.7794519 409.77119751 -235.7794519 409.77119751 -237.40356445 408.90014648 C-240.82533933 407.08103348 -244.28104531 405.33712956 -247.75 403.609375 C-248.42137497 403.27457123 -249.09274994 402.93976746 -249.7844696 402.59481812 C-251.31912206 401.82960849 -252.85398173 401.06481434 -254.38900757 400.300354 C-263.00664639 396.00850658 -271.62080802 391.70967939 -280.23461914 387.41015625 C-282.61414218 386.22291146 -284.99402347 385.03638443 -287.37426758 383.85058594 C-299.56512817 377.7765844 -311.733062 371.67676963 -323.76495361 365.29263306 C-329.81157886 362.08546073 -335.91983735 359.01912816 -342.0625 356 C-372.60678018 340.79777494 -372.60678018 340.79777494 -383 331 C-383.639375 330.41347656 -384.27875 329.82695312 -384.9375 329.22265625 C-402.30438801 311.50687986 -403.03011402 285.16684778 -403.3515625 262.015625 C-403.37477924 260.50551089 -403.39816964 258.99539944 -403.42172241 257.48529053 C-403.46978168 254.33885997 -403.51473976 251.1924037 -403.55761719 248.04589844 C-403.61225567 244.06489184 -403.67622926 240.08409808 -403.74279213 236.1032753 C-403.79352252 232.98872699 -403.83835463 229.87411276 -403.88163376 226.75945282 C-403.90281024 225.29419767 -403.92588101 223.82896832 -403.9510994 222.36377716 C-404.08286044 214.54860709 -404.03065603 206.77081668 -403.61474609 198.96386719 C-403.58148539 198.28328373 -403.54822468 197.60270027 -403.51395607 196.90149307 C-402.46232768 179.66235523 -395.34024546 164.16578236 -382.4375 152.6875 C-374.74604824 146.66494815 -366.06054015 142.32715264 -357.43603516 137.80273438 C-352.18639076 135.04848013 -346.95148458 132.26658046 -341.71557617 129.48632812 C-338.97731594 128.03239161 -336.23653832 126.58339748 -333.4934082 125.13867188 C-327.10171495 121.76508069 -320.76153612 118.32907321 -314.5 114.71875 C-309.89180194 112.06377294 -305.29000911 109.55711448 -300.5 107.25 C-293.20926694 103.67581092 -286.0901239 99.82132355 -278.97412109 95.9128418 C-271.97626583 92.07133686 -264.95279465 88.28062545 -257.912323 84.51779175 C-232.1674939 70.78112813 -232.1674939 70.78112813 -206.6875 56.5625 C-197.03324079 51.04710104 -187.21725842 45.88424384 -177.30932617 40.84399414 C-171.48640974 37.8694774 -165.83161834 34.7537632 -160.25415039 31.34204102 C-157.04794045 29.43317759 -153.7365321 27.80143856 -150.375 26.1875 C-144.94638529 23.53252702 -139.6675191 20.71321948 -134.4375 17.6875 C-112.32822741 5.02677626 -88.85954821 -5.29018637 -64 -11 C-63.20464844 -11.19980469 -62.40929687 -11.39960937 -61.58984375 -11.60546875 C-40.11908017 -14.87627889 -19.10767242 -9.61897122 0 0 Z " fill="#569CE3" transform="translate(564,106)"/>
<path d="M0 0 C7.93768755 5.40726723 12.59411945 13.45670971 14.74609375 22.71484375 C15.62140766 27.92956078 15.90446042 32.94259791 15.9230957 38.21020508 C15.9329525 39.44120941 15.9329525 39.44120941 15.94300842 40.69708252 C15.96261689 43.39701456 15.97438121 46.09689107 15.984375 48.796875 C15.98845053 49.72782171 15.99252605 50.65876842 15.99672508 51.61792564 C16.01754114 56.5534683 16.0318575 61.48898359 16.04125977 66.42456055 C16.0522656 71.47290527 16.08661056 76.52080211 16.12643147 81.56898975 C16.15283549 85.49259648 16.16097284 89.41610073 16.16454124 93.33978844 C16.16935251 95.19776086 16.18080603 97.05573046 16.19957924 98.91361427 C16.40650014 120.76361168 12.70032797 140.27695178 -1.90625 157.33203125 C-16.68607196 172.33318166 -36.37538164 181.32627144 -54.86206055 190.84790039 C-61.91923982 194.48358214 -68.91814676 198.21040713 -75.87890625 202.02734375 C-77.24317749 202.77516113 -77.24317749 202.77516113 -78.63500977 203.53808594 C-80.3759214 204.49280513 -82.11673004 205.44771216 -83.85742188 206.40283203 C-92.58674973 211.18190781 -101.37965477 215.80845165 -110.29711914 220.22802734 C-126.35331254 228.21541073 -142.23992967 236.56688149 -158.09326172 244.94799805 C-163.63225796 247.87265012 -169.19244928 250.75477501 -174.7578125 253.62890625 C-185.0132917 258.92582042 -195.22244804 264.29252926 -205.37890625 269.77734375 C-221.40983173 278.42059259 -237.64446181 286.66339934 -253.86660767 294.9402771 C-261.54985098 298.86191428 -269.21872609 302.81086967 -276.87890625 306.77734375 C-278.0397876 307.37844971 -279.20066895 307.97955566 -280.39672852 308.59887695 C-287.64614579 312.35642832 -294.88944011 316.12565999 -302.12890625 319.90234375 C-303.05082764 320.3828418 -303.97274902 320.86333984 -304.92260742 321.35839844 C-309.69878062 323.85002151 -314.46720569 326.35529724 -319.2265625 328.87890625 C-354.4646422 347.52219196 -394.8483525 364.62991786 -435.25390625 352.71484375 C-436.45144531 352.37453125 -437.64898437 352.03421875 -438.8828125 351.68359375 C-453.59477153 347.14267626 -467.09310417 339.89059677 -480.63671875 332.68359375 C-487.64305863 328.96414678 -494.70127466 325.34544109 -501.75390625 321.71484375 C-510.18706498 317.37100596 -518.6169659 313.02251365 -527.00390625 308.58984375 C-544.60219355 299.29234152 -562.30492801 290.19378707 -580.00390625 281.08984375 C-580.72508636 280.71877502 -581.44626648 280.3477063 -582.18930054 279.96539307 C-590.1275034 275.88149315 -598.06981414 271.8058587 -606.02230835 267.74984741 C-609.52163748 265.96491265 -613.01978518 264.17766826 -616.51794434 262.39044189 C-618.18844613 261.53790746 -619.85956748 260.6865857 -621.53137207 259.83660889 C-650.84495996 244.93264394 -650.84495996 244.93264394 -662.25390625 234.71484375 C-662.91003906 234.14121094 -663.56617188 233.56757812 -664.2421875 232.9765625 C-677.27535927 220.86813906 -683.072955 203.0767541 -684.25390625 185.71484375 C-684.46857203 177.85081994 -684.39389723 169.98897655 -684.31483459 162.12335205 C-684.30761887 161.39944275 -684.30040314 160.67553345 -684.29296875 159.9296875 C-684.2857933 159.21399597 -684.27861786 158.49830444 -684.27122498 157.76092529 C-684.22626319 151.95829428 -684.40601182 146.19332454 -684.75390625 140.40234375 C-684.7995874 139.61794922 -684.84526855 138.83355469 -684.89233398 138.02539062 C-684.97687542 136.57826797 -685.0617313 135.13116363 -685.14697266 133.68408203 C-686.03605958 117.31107941 -685.15706321 99.83862004 -674.2578125 86.7265625 C-668.31512615 80.76070778 -662.36625541 77.58791405 -653.94140625 77.33984375 C-652.83152344 77.29085937 -651.72164062 77.241875 -650.578125 77.19140625 C-638.94767054 77.92690617 -627.81244466 84.73493396 -617.81640625 90.21484375 C-616.50026631 90.92674993 -615.18377247 91.6380022 -613.86694336 92.34863281 C-605.02262523 97.13640625 -596.26020791 102.0656329 -587.5300293 107.05834961 C-580.97506117 110.79172323 -574.33443116 114.32262496 -567.62890625 117.77734375 C-558.50232164 122.48332307 -549.56915866 127.45624759 -540.6796875 132.59375 C-534.84212255 135.9654009 -528.95547009 139.24673245 -523.06640625 142.52734375 C-515.35306871 146.82577585 -507.68371984 151.19013258 -500.05322266 155.6340332 C-484.1187467 164.90426464 -469.2756951 173.40265129 -451.25390625 177.71484375 C-450.59374512 177.87855469 -449.93358398 178.04226563 -449.25341797 178.2109375 C-409.27033287 187.79341494 -369.29997991 174.46115695 -334.25390625 155.71484375 C-332.68845066 154.8927185 -331.12209826 154.07229776 -329.5546875 153.25390625 C-326.52448202 151.66897175 -323.50081169 150.07239101 -320.48046875 148.46875 C-316.46825663 146.34533707 -312.43885912 144.2564264 -308.40234375 142.1796875 C-307.79815109 141.86876663 -307.19395844 141.55784576 -306.57145691 141.23750305 C-305.958694 140.92218124 -305.34593109 140.60685944 -304.71459961 140.28198242 C-294.75270947 135.15544958 -284.82046266 129.99170952 -275.00390625 124.58984375 C-266.88437373 120.12330027 -258.71629357 115.75848134 -250.50390625 111.46484375 C-249.41303711 110.8910498 -248.32216797 110.31725586 -247.19824219 109.72607422 C-246.19051758 109.20158691 -245.18279297 108.67709961 -244.14453125 108.13671875 C-242.7992334 107.43434082 -242.7992334 107.43434082 -241.42675781 106.71777344 C-239.25390625 105.71484375 -239.25390625 105.71484375 -237.25390625 105.71484375 C-236.92390625 105.05484375 -236.59390625 104.39484375 -236.25390625 103.71484375 C-234.23070072 102.59924444 -232.21186213 101.58404181 -230.12890625 100.58984375 C-221.7414323 96.4861351 -213.42731589 92.24491588 -205.12890625 87.96484375 C-204.1102951 87.43981262 -204.1102951 87.43981262 -203.07110596 86.9041748 C-193.96361782 82.20518583 -184.93137492 77.3937832 -175.96240234 72.43457031 C-167.31617756 67.68557068 -158.5362017 63.20508779 -149.75390625 58.71484375 C-139.2042978 53.3209261 -128.71363228 47.8575966 -118.3425293 42.12548828 C-110.81770606 37.98229472 -103.20188284 34.02373122 -95.56640625 30.08984375 C-94.94353729 29.76881683 -94.32066833 29.44778992 -93.67892456 29.11703491 C-91.23084651 27.85547293 -88.7825882 26.59426178 -86.33406067 25.33357239 C-75.44517028 19.72565545 -64.5897904 14.08152746 -53.94140625 8.02734375 C-48.91023251 5.17088297 -43.85078775 2.3962733 -38.69140625 -0.22265625 C-37.61761719 -0.76792969 -36.54382813 -1.31320312 -35.4375 -1.875 C-23.23907967 -7.27822667 -11.54660362 -6.58376532 0 0 Z " fill="#6FB2EA" transform="translate(845.25390625,414.28515625)"/>
<path d="M0 0 C1.18807251 0.01244751 1.18807251 0.01244751 2.40014648 0.02514648 C13.17321918 0.33401634 21.50221537 3.91070923 29.25 11.4375 C32.17600277 14.64468956 34.93852427 17.98005763 37.671875 21.3515625 C48.70345057 34.8295056 61.60544653 39.9514677 78.53125 41.71118164 C91.13988477 43.09955862 98.74610264 48.00829819 106.75 57.5625 C115.28082136 67.47049431 127.35832852 70.19468506 139.9375 71.4375 C151.20579404 72.58564679 159.809914 75.534833 167.25 84.4375 C169.52557737 87.91070231 171.54988231 91.52365662 173.58984375 95.13842773 C179.94897725 106.3471411 186.55433772 112.63720198 198.9375 116.625 C202.7347997 117.45948723 206.5800242 117.85007718 210.4375 118.3125 C229.14599471 120.7253019 245.3003385 128.01041274 257.1953125 142.8671875 C264.18678145 153.02062733 267.27973149 162.00921303 266.25 174.4375 C263.56543957 180.20433352 259.5162785 183.21719619 254 186.1875 C246.62303489 188.71674518 236.77935716 188.90697101 229.32421875 186.48828125 C221.68581731 182.41874636 217.48241378 176.5901206 213.75 169 C207.74976703 156.86171952 200.80342181 150.58460221 187.88012695 146.08569336 C181.43599641 143.93583963 174.95513167 142.05891859 168.375 140.375 C156.19475647 137.16291046 146.55794072 131.87881695 135.97705078 125.18261719 C129.59021211 121.17315931 123.47151594 117.73473814 116.25 115.4375 C115.50363281 115.19773437 114.75726563 114.95796875 113.98828125 114.7109375 C106.26255372 112.63040046 96.91842498 111.68127648 89.625 115.375 C88.51125 116.055625 87.3975 116.73625 86.25 117.4375 C84.765 117.9325 84.765 117.9325 83.25 118.4375 C82.16568906 120.18617483 82.16568906 120.18617483 81.25 122.4375 C80.71375 123.345 80.1775 124.2525 79.625 125.1875 C77.65798723 129.83680291 77.40285819 133.75488425 78.90625 138.515625 C82.18210496 145.91453879 87.8541255 149.61885412 94.5625 153.75 C104.24417334 159.78446763 115.46419708 168.78908851 120.25 179.4375 C119.58613281 179.87320313 118.92226563 180.30890625 118.23828125 180.7578125 C111.16396909 185.52910041 105.17996307 190.11023653 102.25 198.4375 C101.38036993 205.94601329 101.80047293 212.18767085 106.25 218.4375 C114.45983918 228.28930702 125.90902392 232.47890302 138.1418457 234.7800293 C147.65363743 236.58026517 155.10214695 238.97832156 163.25 244.4375 C163.99378906 244.92605469 164.73757813 245.41460937 165.50390625 245.91796875 C171.33699473 250.35842162 174.62424364 256.54057809 178.171875 262.81640625 C183.86939142 272.86990754 189.67495972 277.94057953 199.9921875 283.04296875 C202.25 284.4375 202.25 284.4375 203.25 287.4375 C202.49605957 287.8092334 201.74211914 288.1809668 200.96533203 288.56396484 C183.06054562 297.35844796 183.06054562 297.35844796 165.5 306.8125 C130.55063688 326.51799197 92.13159612 342.84436585 51.58447266 331.75219727 C36.65425886 327.41149999 22.69012999 319.21553578 8.9375 312.125 C7.00346689 311.13305071 5.06922288 310.14151251 3.13476562 309.15039062 C-4.78831927 305.08541595 -12.70127092 301.00430139 -20.5657196 296.82685852 C-34.49338786 289.43340547 -48.63273331 282.45931323 -62.75 275.4375 C-67.98045513 272.83591431 -73.210104 270.23272792 -78.4375 267.625 C-79.38177447 267.15401886 -79.38177447 267.15401886 -80.3451252 266.67352295 C-89.56691976 262.07004381 -98.71776542 257.34726581 -107.81982422 252.51171875 C-113.0975542 249.71250179 -118.45139498 247.07249138 -123.8125 244.4375 C-154.35678018 229.23527494 -154.35678018 229.23527494 -164.75 219.4375 C-165.7090625 218.55771484 -165.7090625 218.55771484 -166.6875 217.66015625 C-183.71158067 200.29407396 -184.93878855 174.36658242 -184.84765625 151.60546875 C-184.84578488 150.23399406 -184.84436439 148.86251869 -184.84336853 147.49104309 C-184.83959985 143.92868108 -184.82981981 140.36636162 -184.81866455 136.80401611 C-184.808327 133.14994888 -184.80384481 129.4958746 -184.79882812 125.84179688 C-184.78819082 118.70701413 -184.77118479 111.57225988 -184.75 104.4375 C-183.32941776 104.10623151 -181.90782988 103.7792739 -180.48583984 103.45410156 C-179.69430511 103.27155823 -178.90277039 103.08901489 -178.08724976 102.90093994 C-162.42067887 99.79450484 -146.87935697 103.84268446 -133.75 112.4375 C-127.0057881 117.67219859 -121.85909183 124.48700396 -116.625 131.15625 C-109.60137533 139.70166002 -99.80395995 145.7508448 -88.75 147.4375 C-86.13886594 147.48506806 -83.55784033 147.48311872 -80.94921875 147.4296875 C-79.39779338 147.41213713 -77.84636061 147.39523224 -76.29492188 147.37890625 C-73.88414165 147.34831321 -71.47374949 147.31320822 -69.06323242 147.26611328 C-53.36389215 146.97631938 -38.62689015 147.34305345 -25.75 157.4375 C-25.07324219 157.95828125 -24.39648438 158.4790625 -23.69921875 159.015625 C-20.88686338 161.30405121 -18.74088741 163.44973691 -16.5625 166.375 C-11.65183416 172.55819718 -2.41666534 177.18295476 5.25 178.4375 C15.99468742 179.35122145 26.76472956 177.46530046 35.25 170.4375 C38.2753735 167.03395482 39.15736378 165.07566064 39.8125 160.5625 C39.5082666 155.65005954 37.37344345 152.15946073 34.25 148.4375 C30.99591418 145.8178497 27.50612479 143.66408579 23.9375 141.5 C7.20184063 131.29302188 7.20184063 131.29302188 4.25 122.4375 C3.71491064 118.49121598 3.36941941 115.92366259 5.42578125 112.453125 C8.84032864 108.37848611 12.79650094 105.12640943 16.9375 101.8125 C22.44310425 97.38835373 25.66445057 94.73786952 26.9375 87.5625 C26.68409632 83.00123371 24.41279621 80.37592899 21.30078125 77.1953125 C13.91382814 70.86363841 4.30479353 69.03478655 -5.2421875 69.234375 C-8.2367782 69.47692752 -11.15945583 69.9558571 -14.125 70.4375 C-34.770554 73.50103382 -55.86272912 71.73235252 -73.421875 59.58984375 C-80.40013159 54.27156638 -87.96596194 48.00585013 -90.75 39.4375 C-91.20503372 34.65964592 -91.27947247 32.45722475 -89.0625 28.1875 C-85.47748319 23.92423677 -82.06663427 21.1492492 -76.75 19.4375 C-73.41943359 19.25805664 -73.41943359 19.25805664 -69.6484375 19.34765625 C-68.25651423 19.36809983 -66.86458697 19.38827326 -65.47265625 19.40820312 C-63.3072793 19.45137408 -61.14217534 19.49956857 -58.97705078 19.55395508 C-43.45541665 19.91521302 -31.35468038 17.47634869 -19.5625 6.75 C-18.99144531 6.18925781 -18.42039062 5.62851563 -17.83203125 5.05078125 C-12.22402929 0.70536885 -6.8797881 -0.09303941 0 0 Z " fill="#8AC8F0" transform="translate(345.75,217.5625)"/>
<path d="M0 0 C0 0.66 0 1.32 0 2 C0.66 2 1.32 2 2 2 C3.40234375 3.6171875 3.40234375 3.6171875 4.9375 5.875 C5.69353516 6.95394531 5.69353516 6.95394531 6.46484375 8.0546875 C10.60413664 15.99623162 11.49180932 23.97684708 11.67578125 32.81640625 C11.72500481 34.49809654 11.72500481 34.49809654 11.77522278 36.21376038 C12.09644105 48.23423915 12.18611174 60.25864433 12.18530273 72.28295898 C12.18753011 75.98757774 12.20590802 79.69191624 12.22460938 83.39648438 C12.22753773 85.79426984 12.22952625 88.19205668 12.23046875 90.58984375 C12.23765427 91.67643784 12.24483978 92.76303192 12.25224304 93.8825531 C12.20651134 109.28799781 8.7089229 124.71902354 -1 137 C-1.82564453 138.08667969 -1.82564453 138.08667969 -2.66796875 139.1953125 C-17.53316843 157.38854196 -42.62941127 166.93604043 -63.16430664 177.09960938 C-70.54173169 180.75101465 -77.82953133 184.55402822 -85.1015625 188.41015625 C-88.56690812 190.24736863 -92.04173353 192.06507296 -95.5234375 193.87109375 C-105.99044703 199.30070486 -116.39485614 204.82230627 -126.72973633 210.49951172 C-134.2296143 214.60809983 -141.80221781 218.56552178 -149.39453125 222.5 C-155.97527618 225.91949398 -162.50010843 229.42944871 -169 233 C-179.35719514 238.68684928 -189.81922963 244.15805781 -200.30712891 249.59912109 C-204.33810969 251.6961082 -208.35673324 253.81628197 -212.375 255.9375 C-220.80345004 260.38301821 -229.256771 264.78005007 -237.71533203 269.16796875 C-243.44182654 272.1408498 -249.15517138 275.13606104 -254.85205078 278.1652832 C-278.82944032 290.88633563 -303.14709486 301.11405552 -330.75 293.1875 C-346.20543831 288.14001334 -360.5536686 279.38370215 -374.54174805 271.26464844 C-379.47837478 268.4066745 -384.43506982 265.6864059 -389.5625 263.1875 C-400.72307265 257.74620875 -411.61099964 251.77200459 -422.53369141 245.87207031 C-424.74609453 244.67720433 -426.95923611 243.48370397 -429.17333984 242.29199219 C-439.11899126 236.93726514 -449.02482593 231.56798115 -458.61254883 225.58837891 C-461.58204782 223.61163547 -461.58204782 223.61163547 -465 223 C-465 222.34 -465 221.68 -465 221 C-466.10214844 220.61134766 -466.10214844 220.61134766 -467.2265625 220.21484375 C-476.70322531 216.06379849 -482.87975333 206.8025966 -487.0625 197.68359375 C-490.25414431 189.10604966 -491.14180104 179.69514667 -488 171 C-485.46445628 166.20057796 -482.72075402 163.65542414 -478 161 C-466.35176015 157.47238265 -454.66137141 162.19910702 -443.91796875 166.66796875 C-443.25949951 166.9417334 -442.60103027 167.21549805 -441.92260742 167.49755859 C-440.1069205 168.26717928 -438.30300615 169.06440464 -436.5 169.86328125 C-432.36421184 171.20648923 -429.31904134 171.20363901 -425 171 C-425 171.99 -425 172.98 -425 174 C-380.46723395 177.66408835 -345.25708317 159.56448408 -306.77197266 139.09838867 C-301.54976012 136.32508818 -296.30163036 133.60582551 -291.0390625 130.91015625 C-290.31862259 130.54111176 -289.59818268 130.17206726 -288.85591125 129.7918396 C-287.35611588 129.02371058 -285.85630377 128.25561425 -284.35647583 127.48754883 C-271.53185681 120.91836298 -258.77110805 114.25157995 -246.08959961 107.41015625 C-238.14275047 103.12865418 -230.14903779 98.94735321 -222.125 94.8125 C-214.15116318 90.7025391 -206.228966 86.52207331 -198.375 82.1875 C-189.10784492 77.0775571 -179.72648985 72.20689064 -170.3125 67.375 C-169.59468353 67.00649933 -168.87686707 66.63799866 -168.13729858 66.2583313 C-165.32309662 64.81384161 -162.50876285 63.36960916 -159.69422913 61.92576599 C-143.56317897 53.64704845 -127.64358761 45.01396101 -111.7890625 36.21875 C-107.13932024 33.65525573 -102.45130244 31.22042923 -97.6875 28.875 C-91.63708217 25.89235218 -85.72187541 22.68950812 -79.8125 19.4375 C-71.20034177 14.70603568 -62.5310459 10.09397976 -53.8125 5.5625 C-52.70302002 4.98363037 -51.59354004 4.40476074 -50.45043945 3.80834961 C-32.47171264 -5.50107167 -18.49876998 -11.66226803 0 0 Z " fill="#8BC8F0" transform="translate(849,641)"/>
<path d="M0 0 C0.84224121 0.42168457 1.68448242 0.84336914 2.55224609 1.27783203 C14.35096901 7.22869335 25.89984583 13.58489488 37.37109375 20.14086914 C44.96856443 24.46541449 52.67718565 28.53848303 60.44311523 32.55078125 C69.80313864 37.39285921 79.04723643 42.43591742 88.28369141 47.50878906 C92.76873912 49.97101012 97.25896407 52.42372229 101.75 54.875 C102.64436768 55.36339355 103.53873535 55.85178711 104.46020508 56.35498047 C111.70783839 60.30753525 118.97739102 64.21863634 126.25 68.125 C134.23692706 72.41573793 142.19481579 76.74976991 150.10571289 81.17895508 C156.59239499 84.79958199 163.13897893 88.30526829 169.6875 91.8125 C179.18256662 96.9004042 188.58818798 102.12424018 197.94799805 107.45629883 C203.41918536 110.56534993 208.92107109 113.58902097 214.5 116.5 C222.13877855 120.48641258 229.63180869 124.71163653 237.11425781 128.98339844 C242.03332097 131.78473557 246.96890734 134.53599896 251.97265625 137.18359375 C266.93452021 145.10538981 281.61824278 153.56530072 290 169 C290 169.66 290 170.32 290 171 C290.66 171.33 291.32 171.66 292 172 C293.03515625 174.51171875 293.03515625 174.51171875 294.0625 177.6875 C294.57490234 179.24017578 294.57490234 179.24017578 295.09765625 180.82421875 C299.52421707 196.40341331 296.38667469 213.22272701 288.6875 227.29296875 C271.13124493 255.45612793 232.71703023 268.69135046 204 283 C203.5555957 282.00734131 203.11119141 281.01468262 202.65332031 279.99194336 C197.23636774 268.10141656 191.15366458 261.71285105 178.69921875 256.91015625 C174.99701567 255.66180123 171.76411542 254.87825062 167.84912109 254.84228516 C167.04082855 254.83202301 166.23253601 254.82176086 165.39974976 254.81118774 C164.53306671 254.80388641 163.66638367 254.79658508 162.7734375 254.7890625 C160.91796018 254.76097712 159.06249156 254.73231256 157.20703125 254.703125 C154.29769289 254.66203127 151.38851386 254.62512304 148.47900391 254.59863281 C145.66014474 254.57077563 142.84201064 254.52489196 140.0234375 254.4765625 C138.74163101 254.4716832 138.74163101 254.4716832 137.43392944 254.46670532 C123.14666236 254.18057383 105.50140952 247.17104502 94.69921875 237.76953125 C89.58164685 232.44019776 87.49357568 227.7722467 86.9453125 220.39453125 C87.00416342 217.81770149 87.4810004 215.52195364 88 213 C88.74579099 204.1360907 88.10792403 197.91017743 82.33984375 191.015625 C77.98880146 186.40548573 73.10049162 182.71402108 67.92578125 179.078125 C64.8625911 176.90240115 61.90656629 174.6145745 58.9375 172.3125 C43.17271669 160.5646077 25.61078422 157.05071689 6.30859375 159.4609375 C4.00838407 159.8156067 1.70887524 160.17485674 -0.58984375 160.5390625 C-11.81511208 162.05633817 -21.11474013 161.72517834 -30.58984375 155.22265625 C-40.5860237 147.15055304 -44.35804986 135.96069356 -48.5 124.25 C-52.59807777 112.75406407 -57.69274139 103.70660843 -69 98 C-75.94445896 95.39778916 -82.78492981 94.42113367 -90.125 93.6875 C-108.85210302 91.51451756 -128.35717772 84.25351761 -141.0390625 69.65234375 C-146.61965751 62.1600981 -149.21757252 54.14724191 -151.5 45.1875 C-152.67563928 40.6840949 -154.15856021 37.66637393 -157 34 C-157.66 33.01 -158.32 32.02 -159 31 C-158.49774902 30.73896484 -157.99549805 30.47792969 -157.47802734 30.20898438 C-145.24493325 23.85202322 -145.24493325 23.85202322 -133.25 17.0625 C-111.59329744 4.56824852 -88.38067098 -5.40017629 -64 -11 C-63.20464844 -11.19980469 -62.40929687 -11.39960937 -61.58984375 -11.60546875 C-40.11908017 -14.87627889 -19.10767242 -9.61897122 0 0 Z " fill="#89C7F0" transform="translate(564,106)"/>
<path d="M0 0 C1.18807251 0.01244751 1.18807251 0.01244751 2.40014648 0.02514648 C13.17321918 0.33401634 21.50221537 3.91070923 29.25 11.4375 C32.17600277 14.64468956 34.93852427 17.98005763 37.671875 21.3515625 C48.70345057 34.8295056 61.60544653 39.9514677 78.53125 41.71118164 C91.13988477 43.09955862 98.74610264 48.00829819 106.75 57.5625 C115.28082136 67.47049431 127.35832852 70.19468506 139.9375 71.4375 C151.20579404 72.58564679 159.809914 75.534833 167.25 84.4375 C169.52557737 87.91070231 171.54988231 91.52365662 173.58984375 95.13842773 C179.94897725 106.3471411 186.55433772 112.63720198 198.9375 116.625 C202.7347997 117.45948723 206.5800242 117.85007718 210.4375 118.3125 C229.14599471 120.7253019 245.3003385 128.01041274 257.1953125 142.8671875 C264.18678145 153.02062733 267.27973149 162.00921303 266.25 174.4375 C263.56543957 180.20433352 259.5162785 183.21719619 254 186.1875 C246.62303489 188.71674518 236.77935716 188.90697101 229.32421875 186.48828125 C221.68581731 182.41874636 217.48241378 176.5901206 213.75 169 C207.74976703 156.86171952 200.80342181 150.58460221 187.88012695 146.08569336 C181.43599641 143.93583963 174.95513167 142.05891859 168.375 140.375 C156.19475647 137.16291046 146.55794072 131.87881695 135.97705078 125.18261719 C129.59021211 121.17315931 123.47151594 117.73473814 116.25 115.4375 C115.50363281 115.19773437 114.75726563 114.95796875 113.98828125 114.7109375 C106.26255372 112.63040046 96.91842498 111.68127648 89.625 115.375 C87.954375 116.3959375 87.954375 116.3959375 86.25 117.4375 C85.26 117.7675 84.27 118.0975 83.25 118.4375 C82.16568906 120.18617483 82.16568906 120.18617483 81.25 122.4375 C80.71375 123.345 80.1775 124.2525 79.625 125.1875 C77.65798723 129.83680291 77.40285819 133.75488425 78.90625 138.515625 C82.18210496 145.91453879 87.8541255 149.61885412 94.5625 153.75 C104.24417334 159.78446763 115.46419708 168.78908851 120.25 179.4375 C119.58613281 179.87320313 118.92226563 180.30890625 118.23828125 180.7578125 C111.06261426 185.59745943 105.39835682 190.09435444 102.25 198.4375 C102.01310723 200.33484817 101.82379511 202.23849649 101.671875 204.14453125 C101.5903418 205.13557861 101.50880859 206.12662598 101.42480469 207.14770508 C101.36711914 207.9033374 101.30943359 208.65896973 101.25 209.4375 C75.08412081 210.40374369 55.65778082 205.56266305 35.27734375 188.45703125 C32.0008831 185.19319665 29.35335875 181.55871511 27.25 177.4375 C27.25 176.7775 27.25 176.1175 27.25 175.4375 C28.859375 174.359375 28.859375 174.359375 31 173.1875 C34.93894253 170.79200835 37.24149942 168.70556374 39.25 164.4375 C40.09840357 158.59294206 39.17038181 155.39211226 35.98657227 150.50683594 C32.67888336 146.56532445 28.2971525 144.14378089 23.9375 141.5 C7.20184063 131.29302188 7.20184063 131.29302188 4.25 122.4375 C3.71491064 118.49121598 3.36941941 115.92366259 5.42578125 112.453125 C8.84032864 108.37848611 12.79650094 105.12640943 16.9375 101.8125 C22.44310425 97.38835373 25.66445057 94.73786952 26.9375 87.5625 C26.68409632 83.00123371 24.41279621 80.37592899 21.30078125 77.1953125 C13.91382814 70.86363841 4.30479353 69.03478655 -5.2421875 69.234375 C-8.2367782 69.47692752 -11.15945583 69.9558571 -14.125 70.4375 C-34.770554 73.50103382 -55.86272912 71.73235252 -73.421875 59.58984375 C-80.40013159 54.27156638 -87.96596194 48.00585013 -90.75 39.4375 C-91.20503372 34.65964592 -91.27947247 32.45722475 -89.0625 28.1875 C-85.47748319 23.92423677 -82.06663427 21.1492492 -76.75 19.4375 C-73.41943359 19.25805664 -73.41943359 19.25805664 -69.6484375 19.34765625 C-68.25651423 19.36809983 -66.86458697 19.38827326 -65.47265625 19.40820312 C-63.3072793 19.45137408 -61.14217534 19.49956857 -58.97705078 19.55395508 C-43.45541665 19.91521302 -31.35468038 17.47634869 -19.5625 6.75 C-18.99144531 6.18925781 -18.42039062 5.62851563 -17.83203125 5.05078125 C-12.22402929 0.70536885 -6.8797881 -0.09303941 0 0 Z " fill="#EEA8D9" transform="translate(345.75,217.5625)"/>
<path d="M0 0 C1.66482422 -0.07347656 1.66482422 -0.07347656 3.36328125 -0.1484375 C14.99373571 0.58706242 26.12896159 7.39509021 36.125 12.875 C37.44113994 13.58690618 38.75763378 14.29815845 40.07446289 15.00878906 C48.91878102 19.7965625 57.68119834 24.72578915 66.41137695 29.71850586 C72.96634508 33.45187948 79.60697509 36.98278121 86.3125 40.4375 C95.43908461 45.14347932 104.37224759 50.11640384 113.26171875 55.25390625 C119.0992837 58.62555715 124.98593616 61.9068887 130.875 65.1875 C138.58833754 69.4859321 146.25768641 73.85028883 153.88818359 78.29418945 C169.93110366 87.62751063 184.6569196 95.73346445 202.6875 100.375 C202.20667969 101.00792969 201.72585938 101.64085937 201.23046875 102.29296875 C199.15092343 106.44679471 199.12666983 110.10205203 199 114.6875 C198.96583984 115.52345703 198.93167969 116.35941406 198.89648438 117.22070312 C198.81444539 119.27167772 198.7492849 121.32331538 198.6875 123.375 C183.91555386 128.956842 172.40812526 130.18100405 157.34375 124.00390625 C149.90469406 120.51056579 143.60986439 116.26552576 137.10253906 111.30297852 C131.96790857 107.43718126 126.74005329 104.59075247 120.6875 102.375 C119.73746094 102.01277344 118.78742188 101.65054688 117.80859375 101.27734375 C111.03209547 99.31818092 102.66794249 98.97240484 96.1875 102.0625 C94.99478033 102.79237323 93.82535872 103.56224377 92.6875 104.375 C91.635625 105.1175 90.58375 105.86 89.5 106.625 C83.79119166 112.20694594 80.58014564 118.02283661 80.3125 126.0625 C80.3942942 132.22680808 81.55082243 135.838037 85.6875 140.375 C92.08724722 145.63682539 99.15638563 148.24410252 106.9375 150.8125 C116.03832856 153.95387579 124.54744755 157.14780945 132.6875 162.375 C133.62335938 162.96474609 133.62335938 162.96474609 134.578125 163.56640625 C139.93880528 167.45154575 143.67630106 173.73147367 145.42578125 180.03515625 C146.05447881 184.24552478 145.96234022 186.74167253 144.25 190.6875 C138.29621161 196.93171709 131.23204357 200.26046293 122.5625 200.75 C114.18426389 200.53663236 106.21821586 197.09229219 98.625 193.8125 C88.21401946 189.41825497 78.66158768 187.98639745 67.42407227 187.84082031 C58.26633052 187.63003935 50.61084422 185.58473956 43.125 180.25 C42.57473145 179.85893066 42.02446289 179.46786133 41.45751953 179.06494141 C37.16614697 175.93129972 33.58568759 172.34864826 29.93359375 168.515625 C23.88266354 162.74882542 16.60775214 158.87613225 8.6875 156.375 C8.11515625 156.18808594 7.5428125 156.00117187 6.953125 155.80859375 C4.28785187 155.29851562 1.70760011 155.33944629 -0.99829102 155.34106445 C-9.83322392 155.22239987 -9.83322392 155.22239987 -13.671875 153.0234375 C-15.61515792 150.92861417 -16.92848041 148.87745705 -18.3125 146.375 C-18.91320312 145.35792969 -19.51390625 144.34085938 -20.1328125 143.29296875 C-27.28193421 130.20618738 -30.51278253 115.76667924 -30.375 100.859375 C-30.36645045 99.4383957 -30.35799021 98.01741585 -30.34960938 96.59643555 C-30.34340576 95.86564789 -30.33720215 95.13486023 -30.33081055 94.38192749 C-30.24601648 83.93035229 -30.19855809 73.50055476 -30.8125 63.0625 C-30.85802002 62.27891113 -30.90354004 61.49532227 -30.95043945 60.68798828 C-31.03525084 59.24005807 -31.12027671 57.7921404 -31.20556641 56.34423828 C-32.09465333 39.97123566 -31.21565696 22.49877629 -20.31640625 9.38671875 C-14.3737199 3.42086403 -8.42484916 0.2480703 0 0 Z " fill="#EDA8D9" transform="translate(191.3125,491.625)"/>
<path d="M0 0 C-0.44626307 1.26109585 -0.89946672 2.51973665 -1.35546875 3.77734375 C-1.60707764 4.47851318 -1.85868652 5.17968262 -2.11791992 5.90209961 C-5.61161642 14.21135342 -13.07311107 17.90089801 -21.03515625 21.24511719 C-30.82035985 25.00454183 -41.08000375 26.40554557 -51.43359375 27.58203125 C-59.32725174 28.50713684 -65.68415986 29.89583183 -72 35 C-74.48147732 38.72221599 -74.74736197 41.68829631 -74 46 C-69.04079962 54.85571497 -57.92793825 57.72709656 -48.875 61 C-34.94522192 66.05865703 -26.37748466 72.57226728 -19.0625 85.4375 C-10.89781248 99.7356303 -1.34148189 106.08426816 14.5 110.5 C28.57681968 114.45624052 37.71941694 120.88333611 48 131 C56.83964888 139.6174674 66.60849335 143.65228263 78.1875 147.375 C95.86295408 153.08480293 112.84867318 159.59328046 122 177 C124.55597693 183.73848462 125.05657568 190.26360316 122.19921875 196.9609375 C117.38834195 205.14099513 109.56528159 208.26667002 101.11669922 211.48535156 C95.35768615 213.71489581 89.9142215 216.17155701 87 222 C86.92934383 224.04055005 86.91578024 226.08334257 86.9375 228.125 C86.95103516 229.76855469 86.95103516 229.76855469 86.96484375 231.4453125 C86.97644531 232.28835938 86.98804688 233.13140625 87 234 C78.90476795 230.87938901 71.83415398 226.94793688 67.71484375 218.9921875 C65.67216771 213.2994838 65.79005849 207.82729185 67 202 C67.74579099 193.1360907 67.10792403 186.91017743 61.33984375 180.015625 C56.98880146 175.40548573 52.10049162 171.71402108 46.92578125 168.078125 C43.8625911 165.90240115 40.90656629 163.6145745 37.9375 161.3125 C22.17271669 149.5646077 4.61078422 146.05071689 -14.69140625 148.4609375 C-16.99161593 148.8156067 -19.29112476 149.17485674 -21.58984375 149.5390625 C-32.81511208 151.05633817 -42.11474013 150.72517834 -51.58984375 144.22265625 C-61.5860237 136.15055304 -65.35804986 124.96069356 -69.5 113.25 C-73.59807777 101.75406407 -78.69274139 92.70660843 -90 87 C-96.94445896 84.39778916 -103.78492981 83.42113367 -111.125 82.6875 C-129.85210302 80.51451756 -149.35717772 73.25351761 -162.0390625 58.65234375 C-167.61965751 51.1600981 -170.21757252 43.14724191 -172.5 34.1875 C-173.67563928 29.6840949 -175.15856021 26.66637393 -178 23 C-178.66 22.01 -179.32 21.02 -180 20 C-179.49774902 19.73896484 -178.99549805 19.47792969 -178.47802734 19.20898438 C-166.24493325 12.85202322 -166.24493325 12.85202322 -154.25 6.0625 C-132.59329744 -6.43175148 -109.38067098 -16.40017629 -85 -22 C-84.20464844 -22.19980469 -83.40929687 -22.39960937 -82.58984375 -22.60546875 C-51.88932414 -27.28232015 -26.11870732 -14.02318577 0 0 Z " fill="#EDA8D9" transform="translate(585,117)"/>
<path d="M0 0 C0.34611328 0.88751953 0.34611328 0.88751953 0.69921875 1.79296875 C4.00246773 9.79649295 8.09571097 14.2067217 15.9921875 17.8671875 C27.65147935 22.25834936 39.83972251 22.41450738 52.15600586 22.44628906 C64.02419013 22.62388091 73.56697862 25.80755655 83 33 C84.051875 33.763125 85.10375 34.52625 86.1875 35.3125 C92.79941604 41.6305531 96.40212386 48.88960512 98.3125 57.75 C101.82704738 71.91206776 111.49465875 82.59760319 123.8203125 90.109375 C131.08260008 94.05957326 139.52975631 96.78227718 147.75 97.625 C149.35875 97.810625 149.35875 97.810625 151 98 C151.33 98.66 151.66 99.32 152 100 C139.76070813 106.39575357 127.5129379 112.77468986 115.25 119.125 C106.90402421 123.4476823 98.5706724 127.79226544 90.26049805 132.18334961 C84.68591543 135.12448588 79.09085753 138.02459206 73.49072266 140.91674805 C63.15455034 146.25560703 52.86462699 151.66531233 42.625 157.1875 C31.95554654 162.91874488 21.25935836 168.59902391 10.51483154 174.18838501 C8.84533161 175.05911575 7.17802479 175.93406512 5.51300049 176.81332397 C3.18119688 178.04345601 0.84185664 179.25789189 -1.5 180.46875 C-2.19976959 180.8418782 -2.89953918 181.21500641 -3.62051392 181.59944153 C-8.47366577 184.0785578 -8.47366577 184.0785578 -11.09619141 183.68713379 C-13.64852993 182.76592876 -14.96788045 181.29696095 -16.875 179.375 C-26.92860986 170.3089428 -38.37948814 167.02844217 -51.29711914 164.12841797 C-69.55026297 160.00010598 -82.49985645 150.72306846 -93.125 135.1875 C-100.80132973 124.18319091 -112.44630474 120.90652058 -125 118 C-121.53178162 115.09658054 -117.68100557 113.33958968 -113.5625 111.5625 C-112.85818848 111.25683105 -112.15387695 110.95116211 -111.42822266 110.63623047 C-94.50488404 103.43894853 -77.92860614 100.19577499 -60 106 C-56.63342191 107.36663071 -53.34893102 108.88936205 -50.0625 110.4375 C-32.61981914 118.63087431 -14.93912797 122.42984552 3.8359375 116.2578125 C10.86609668 113.46310725 17.51086878 110.30294708 21.22265625 103.39453125 C23.71423881 95.71945534 22.67080392 87.45207092 19.32421875 80.21875 C14.65146517 72.38947556 7.88313978 68.45710802 -0.65234375 65.91015625 C-5.32287071 64.78912173 -9.84014632 64.69810153 -14.625 64.75 C-15.93670166 64.75580078 -15.93670166 64.75580078 -17.27490234 64.76171875 C-23.63645837 64.84571509 -29.67843687 65.51639058 -35.95703125 66.546875 C-48.30161778 68.38509328 -57.75975189 66.02664179 -68 59 C-69.3403591 57.96738938 -70.6741019 56.92611439 -72 55.875 C-78.58608709 50.81592907 -85.79977803 48.60742385 -94 48 C-90.99533881 45.61247417 -87.92387261 43.81683576 -84.51171875 42.06640625 C-83.42511963 41.50638916 -82.33852051 40.94637207 -81.21899414 40.36938477 C-80.05360107 39.77311279 -78.88820801 39.17684082 -77.6875 38.5625 C-76.46388309 37.93265349 -75.24049738 37.30235764 -74.01733398 36.67163086 C-71.52952675 35.38906095 -69.04097622 34.10795388 -66.55175781 32.828125 C-61.54840501 30.25284965 -56.55295237 27.66267599 -51.5625 25.0625 C-50.6545166 24.58949463 -49.7465332 24.11648926 -48.81103516 23.62915039 C-39.66505329 18.84963216 -30.57282911 13.96995172 -21.48852539 9.07446289 C-18.32988844 7.37495293 -15.16625828 5.6852579 -12 4 C-11.19159668 3.56300781 -10.38319336 3.12601563 -9.55029297 2.67578125 C-6.0245465 0.82140941 -4.06911389 0 0 0 Z " fill="#8BC8F0" transform="translate(597,527)"/>
<path d="M0 0 C0 0.66 0 1.32 0 2 C0.66 2 1.32 2 2 2 C3.40234375 3.6171875 3.40234375 3.6171875 4.9375 5.875 C5.69353516 6.95394531 5.69353516 6.95394531 6.46484375 8.0546875 C10.60413664 15.99623162 11.49180932 23.97684708 11.67578125 32.81640625 C11.70859695 33.93753311 11.74141266 35.05865997 11.77522278 36.21376038 C12.09644105 48.23423915 12.18611174 60.25864433 12.18530273 72.28295898 C12.18753011 75.98757774 12.20590802 79.69191624 12.22460938 83.39648438 C12.22753773 85.79426984 12.22952625 88.19205668 12.23046875 90.58984375 C12.23765427 91.67643784 12.24483978 92.76303192 12.25224304 93.8825531 C12.20651134 109.28799781 8.7089229 124.71902354 -1 137 C-1.55042969 137.72445312 -2.10085938 138.44890625 -2.66796875 139.1953125 C-14.80678455 154.05177363 -36.84962417 166.37083089 -55 172 C-55 171.34 -55 170.68 -55 170 C-56.216875 169.938125 -57.43375 169.87625 -58.6875 169.8125 C-73.59189477 168.06041598 -85.40101807 159.58340184 -95.0480957 148.52001953 C-98.28261383 144.34407256 -100.56781252 139.76496267 -102.9375 135.0625 C-111.32402602 119.21792806 -120.13686844 110.63170479 -137.4375 105.0625 C-147.0633573 102.76590371 -156.86597067 103.57585903 -166.4609375 105.54296875 C-177.80999473 107.58579905 -189.0865971 104.97023062 -198.73046875 98.75390625 C-202.33480177 95.96845784 -205.43453366 92.77174522 -208 89 C-208 88.34 -208 87.68 -208 87 C-207.16041748 86.56768066 -206.32083496 86.13536133 -205.45581055 85.68994141 C-185.23310437 75.28638433 -185.23310437 75.28638433 -165.08935547 64.73120117 C-160.54261145 62.32772202 -155.98158599 59.95389581 -151.41015625 57.59765625 C-139.14533048 51.27503837 -126.97561935 44.85540205 -115 38 C-109.29857914 34.80537008 -103.5510725 31.76168185 -97.6875 28.875 C-91.63707279 25.89237128 -85.72187465 22.6895077 -79.8125 19.4375 C-71.20034177 14.70603568 -62.5310459 10.09397976 -53.8125 5.5625 C-52.70302002 4.98363037 -51.59354004 4.40476074 -50.45043945 3.80834961 C-32.47171264 -5.50107167 -18.49876998 -11.66226803 0 0 Z " fill="#EDA8D9" transform="translate(849,641)"/>
<path d="M0 0 C4.80029297 4.796875 4.80029297 4.796875 6.59765625 6.625 C15.0263432 14.53672748 26.0232816 17.25196591 37.3125 17.16796875 C40.02489491 16.99844407 42.5296285 16.5576784 45.1875 16 C61.17040183 12.92463827 75.85055077 15.69740176 89.69140625 24.1796875 C96.08135645 29.21812539 100.27534962 34.54691274 104 41.75 C104.86255529 43.34875208 105.7271366 44.94641275 106.59375 46.54296875 C107.2125 47.69224854 107.2125 47.69224854 107.84375 48.86474609 C116.44357817 64.74610108 127.92810943 74.22959462 145 80 C147.99220829 80.78578764 150.95994837 81.41160291 154 82 C154 82.99 154 83.98 154 85 C145.12618032 89.71021884 136.25469077 94.41872952 127.25 98.875 C112.96440082 105.96147123 98.85781039 113.39728456 84.875 121.0625 C77.35176031 125.18049099 69.82078309 129.28242783 62.25 133.3125 C61.35007324 133.79920166 60.45014648 134.28590332 59.52294922 134.78735352 C58.28182373 135.44368774 58.28182373 135.44368774 57.015625 136.11328125 C56.28633789 136.50298096 55.55705078 136.89268066 54.80566406 137.29418945 C54.20979492 137.52710693 53.61392578 137.76002441 53 138 C52.34 137.67 51.68 137.34 51 137 C51.15984375 136.46375 51.3196875 135.9275 51.484375 135.375 C54.15173 123.08900122 51.04957635 110.193351 44.77734375 99.53515625 C37.61286501 89.31593273 26.42297107 83.91221035 14.42285156 81.41113281 C10.17974552 80.69112167 5.91311036 80.38895222 1.625 80.0625 C-5.83456293 79.41542735 -12.94046942 78.65358242 -20 76 C-20.68578125 75.74734375 -21.3715625 75.4946875 -22.078125 75.234375 C-34.07176848 70.04027743 -42.58771758 58.82944256 -47.75 47.1875 C-50.20749164 40.95049976 -51.69777018 34.56408526 -53 28 C-35.51913967 18.29989659 -17.79278806 9.11040859 0 0 Z " fill="#569DE3" transform="translate(640,729)"/>
<path d="M0 0 C0.98770386 0.41064697 0.98770386 0.41064697 1.99536133 0.82958984 C3.81104825 1.59921053 5.6149626 2.39643589 7.41796875 3.1953125 C11.55375691 4.53852048 14.59892741 4.53567026 18.91796875 4.33203125 C18.91796875 5.32203125 18.91796875 6.31203125 18.91796875 7.33203125 C33.79739147 8.55628755 48.32801729 8.85374367 62.91796875 5.33203125 C65.14453125 5.77734375 65.14453125 5.77734375 66.91796875 6.33203125 C66.91796875 6.99203125 66.91796875 7.65203125 66.91796875 8.33203125 C80.08633228 18.44390808 95.30598998 23.07947699 111.52734375 25.2578125 C112.70296875 25.41693115 113.87859375 25.5760498 115.08984375 25.73999023 C117.41526748 26.04352023 119.74346382 26.32674483 122.07421875 26.58618164 C132.50564025 27.91995274 142.45844984 31.69490474 149.91796875 39.33203125 C155.3800144 46.62767142 157.86096772 52.12070801 156.91796875 61.33203125 C155.53731857 66.41493444 153.273313 69.42193367 148.85546875 72.26953125 C141.23331744 76.5853367 134.18661634 75.56245093 125.91796875 73.83203125 C120.01392935 72.7089197 114.24377679 71.98487203 108.23046875 71.89453125 C106.96847656 71.87519531 105.70648438 71.85585938 104.40625 71.8359375 C100.254986 72.42631883 98.12916872 73.67091971 94.91796875 76.33203125 C93.61671088 78.16074203 93.61671088 78.16074203 92.91796875 80.14453125 C88.58378874 89.56438216 82.35225631 93.35102102 72.91796875 97.33203125 C72.04011719 97.76773438 71.16226563 98.2034375 70.2578125 98.65234375 C65.93401989 100.41316427 63.13220945 100.73338506 58.65625 99.25390625 C55.17092958 97.64713063 51.86127125 95.74251369 48.54052734 93.82324219 C44.38175368 91.45852523 40.14371981 89.24521102 35.91650391 87.00585938 C29.89825788 83.81617065 23.91101012 80.56872946 17.91796875 77.33203125 C16.8707666 76.76838867 15.82356445 76.20474609 14.74462891 75.62402344 C4.79897749 70.26929639 -5.10685718 64.9000124 -14.69458008 58.92041016 C-17.66407907 56.94366672 -17.66407907 56.94366672 -21.08203125 56.33203125 C-21.08203125 55.67203125 -21.08203125 55.01203125 -21.08203125 54.33203125 C-21.81679688 54.07292969 -22.5515625 53.81382812 -23.30859375 53.546875 C-32.78525656 49.39582974 -38.96178458 40.13462785 -43.14453125 31.015625 C-46.33617556 22.43808091 -47.22383229 13.02717792 -44.08203125 4.33203125 C-41.54648753 -0.46739079 -38.80278527 -3.01254461 -34.08203125 -5.66796875 C-22.4337914 -9.1955861 -10.74340266 -4.46886173 0 0 Z " fill="#579CE3" transform="translate(405.08203125,807.66796875)"/>
<path d="M0 0 C5.2351874 2.3528179 9.27209168 5.4330194 13.62109375 9.1328125 C21.72624004 15.49448726 30.99471305 16.58614079 41 16 C43.12809658 15.68704462 45.25301228 15.35200032 47.375 15 C61.58045467 12.86221075 78.58941563 11.36777863 90.87109375 20.0234375 C97.75068475 25.87458457 102.42391041 31.77823245 103.2734375 40.953125 C103.46609845 47.20719595 103.52211287 52.16490584 99.66796875 57.29296875 C91.3058539 65.85091767 79.11257142 69.97355822 67.33081055 70.29321289 C52.4607696 70.42702463 40.70872483 66.51149723 27.37207031 60.22900391 C10.17856618 52.29635011 -6.58937635 52.42659939 -24.20068359 58.79589844 C-31.1893148 61.48300482 -38.0026267 64.50851878 -44.75 67.75 C-59.78522711 74.52927651 -79.68085245 75.92327663 -95.5078125 70.96875 C-109.16454436 65.66017711 -118.51649472 57.61954612 -124.84936523 44.20019531 C-127.04086194 38.98721703 -127.42944701 34.36345628 -127.3125 28.75 C-127.31572266 27.96109375 -127.31894531 27.1721875 -127.32226562 26.359375 C-127.2571 19.34518406 -127.2571 19.34518406 -125 16 C-123.33317469 16.1440088 -121.66654815 16.29031844 -120 16.4375 C-118.6078125 16.55931641 -118.6078125 16.55931641 -117.1875 16.68359375 C-114.90069165 16.91059311 -112.6192805 17.19471685 -110.34375 17.515625 C-80.73834022 21.24083222 -48.15782853 15.17000768 -21.9375 0.9375 C-13.88417603 -3.34363505 -8.46207294 -3.14367086 0 0 Z " fill="#569CE3" transform="translate(517,577)"/>
<path d="M0 0 C17.9507181 -0.64622585 29.23089236 3.37992197 42.5 15.6953125 C53.06999667 25.43952818 62.57167063 31.88422916 77.14355469 32.23876953 C91.69889311 32.63166479 103.92936529 35.81509079 117.28027344 41.62548828 C126.01378253 45.41948517 133.66490396 46.37223651 142.75 43.25 C147.74101973 41.26335108 151.83767708 39.46204503 154.22265625 34.41015625 C156 32 156 32 158.93359375 31.3359375 C172.18891187 31.48371139 181.05414969 35.06236993 190.59765625 44.33203125 C194.86736979 49.0738432 197.68828004 54.19023623 200.375 59.9453125 C205.53502906 70.91037426 211.6288183 78.81421969 222.8828125 83.8828125 C227.87077338 85.67047768 232.73688005 86.51951854 238 87 C238.7115625 87.09410156 239.423125 87.18820312 240.15625 87.28515625 C250.34739523 88.04949214 261.60138064 82.99697375 271.04296875 79.578125 C284.7448464 75.53046454 301.3366353 76.49585938 314 83 C320.471155 86.72883337 327.79686032 91.71877171 332 98 C332.2109375 101.24609375 332.2109375 101.24609375 332 104 C301.0327693 120.02958204 263.63184189 131.21248132 229 121 C227.80246094 120.6596875 226.60492188 120.319375 225.37109375 119.96875 C210.65913472 115.42783251 197.16080208 108.17575302 183.6171875 100.96875 C176.61084762 97.24930303 169.55263159 93.63059734 162.5 90 C154.06684127 85.65616221 145.63694035 81.3076699 137.25 76.875 C119.6517127 67.57749777 101.94897824 58.47894332 84.25 49.375 C83.52881989 49.00393127 82.80763977 48.63286255 82.06460571 48.25054932 C74.12640285 44.1666494 66.18409211 40.09101495 58.2315979 36.03500366 C54.73226877 34.2500689 51.23412107 32.46282451 47.73596191 30.67559814 C46.06546012 29.82306371 44.39433877 28.97174195 42.72253418 28.12176514 C6.45468902 9.68203353 6.45468902 9.68203353 0 0 Z " fill="#569CE3" transform="translate(181,646)"/>
<path d="M0 0 C2.15615774 1.17985612 4.31241046 2.35953868 6.46875 3.5390625 C8.12197266 4.44640137 8.12197266 4.44640137 9.80859375 5.37207031 C14.02017694 7.67752766 18.24448981 9.95894993 22.46972656 12.23925781 C31.14918832 16.92443295 39.80307804 21.6510925 48.4152832 26.45874023 C54.15154196 29.65767187 59.91650106 32.8017564 65.6875 35.9375 C73.94439472 40.42985528 82.17021073 44.97566167 90.375 49.5625 C91.39795166 50.13323242 92.42090332 50.70396484 93.47485352 51.29199219 C124.80770381 68.85010061 124.80770381 68.85010061 133.125 84.1875 C133.125 84.8475 133.125 85.5075 133.125 86.1875 C133.785 86.5175 134.445 86.8475 135.125 87.1875 C136.16015625 89.69921875 136.16015625 89.69921875 137.1875 92.875 C137.52910156 93.91011719 137.87070312 94.94523437 138.22265625 96.01171875 C142.71499072 111.8224024 139.35829804 128.50660693 131.65234375 142.78125 C129.75806351 145.76558921 127.84689409 147.94594016 125.125 150.1875 C124.95484375 149.39085937 124.7846875 148.59421875 124.609375 147.7734375 C122.41378617 138.17357572 119.32990917 131.98574488 111.125 126.1875 C106.03306703 123.38533797 100.80568657 120.87979111 95.5625 118.375 C73.90631456 108.01022896 55.88961797 97.40197601 45.125 75.0625 C38.99612617 62.40124735 31.49569907 55.87768348 18.25976562 51.15087891 C12.85153473 49.48881667 7.32562442 48.65518483 1.75 47.75 C-14.5630703 44.89879738 -30.04943371 40.69931102 -40.875 27.1875 C-45.6687379 20.20927395 -47.15123051 13.58631222 -45.875 5.1875 C-43.43150565 -0.41217454 -39.15582601 -3.09076011 -33.875 -5.8125 C-30.53300366 -6.92649878 -27.57347376 -7.21209267 -24.0625 -7.5 C-22.85980469 -7.60699219 -21.65710938 -7.71398437 -20.41796875 -7.82421875 C-12.70035586 -7.79869192 -6.58631775 -3.63662692 0 0 Z " fill="#EDA8D9" transform="translate(720.875,190.8125)"/>
<path d="M0 0 C6.82180763 4.02463045 11.48588594 9.79850207 16.48583984 15.79418945 C25.94056826 27.00385238 37.86713556 34.75432157 52.72509766 36.27978516 C55.81563875 36.50137497 58.90705371 36.69017846 62 36.875 C78.67406617 38.06574436 98.32083972 40.55032872 110 54 C114.09686724 59.61229007 115.90970825 64.06347461 115 71 C112.16150415 80.08318673 103.10994423 85.07687348 95.3125 89.5625 C86.81548732 94.47940458 81.63193151 99.27756644 79 109 C78.60919203 110.98956785 78.25149128 112.98806977 78 115 C72.48637002 113.38745474 67.60028053 110.89088321 62.51953125 108.265625 C61.60161804 107.79563583 60.68370483 107.32564667 59.73797607 106.84141541 C56.76049939 105.31541079 53.78630431 103.78314741 50.8125 102.25 C48.76498608 101.19683967 46.71737829 100.14386184 44.66967773 99.09106445 C41.61432352 97.51976156 38.55930984 95.94781553 35.50538635 94.37373352 C29.85467196 91.4620306 24.19356133 88.5730522 18.515625 85.71484375 C-4.94658642 73.87239162 -23.49071943 61.99120829 -32.38671875 36.15234375 C-34.63658961 28.39226286 -35.40652947 20.88606378 -35.5625 12.8125 C-35.58957031 11.9150708 -35.61664063 11.0176416 -35.64453125 10.09301758 C-35.61782654 5.69466799 -35.4648061 3.62491505 -32.77734375 0.01171875 C-23.15622719 -6.95716315 -10.13294005 -5.25587077 0 0 Z " fill="#EDA8D9" transform="translate(197,373)"/>
<path d="M0 0 C0 0.66 0 1.32 0 2 C0.66 2 1.32 2 2 2 C3.40234375 3.6171875 3.40234375 3.6171875 4.9375 5.875 C5.44152344 6.59429688 5.94554687 7.31359375 6.46484375 8.0546875 C10.60136274 15.99090968 11.49361487 23.97079774 11.6796875 32.8046875 C11.71270966 33.92519501 11.74573181 35.04570251 11.77975464 36.20016479 C12.10205768 48.28021637 12.15140311 60.36405282 12.13037109 72.44775391 C12.12491198 76.18526086 12.13041114 79.92265244 12.13671875 83.66015625 C12.13605939 86.0677086 12.1347812 88.47526087 12.1328125 90.8828125 C12.13483673 91.98489044 12.13686096 93.08696838 12.13894653 94.22244263 C12.12165045 99.91053238 11.85303222 105.37439229 11 111 C6.44334059 110.46392242 3.76654048 108.51102698 0 106 C-10.09183607 103.37989271 -19.27942159 105.26026484 -28.9375 108.5 C-43.66425792 113.08824751 -56.06451459 113.68901 -70.5 107.125 C-73.86516495 105.26326991 -76.1483663 103.46174997 -78 100 C-78.07462447 95.82102975 -77.57862743 93.74136639 -75 90.4375 C-69.11889098 85.65909892 -62.98900738 81.96098343 -56.25 78.5 C-50.51413417 75.47794919 -46.93454241 72.86908481 -44 67 C-43.29419544 62.05936805 -44.53156484 58.86822921 -47.3046875 54.8828125 C-57.44772199 43.61796775 -81.08223523 42.65039695 -95.15527344 40.25561523 C-96.03731445 40.10423096 -96.91935547 39.95284668 -97.828125 39.796875 C-99.0022998 39.60109863 -99.0022998 39.60109863 -100.20019531 39.40136719 C-102 39 -102 39 -103 38 C-104.34747084 37.76924918 -105.70377565 37.58846937 -107.0625 37.4375 C-108.361875 37.293125 -109.66125 37.14875 -111 37 C-107.4934675 34.14315499 -103.6236878 32.12878311 -99.625 30.0625 C-93.82139651 27.02985612 -88.05088728 23.94675248 -82.31323242 20.79101562 C-72.8728489 15.59884755 -63.37104828 10.53297818 -53.8125 5.5625 C-52.70277832 4.98346924 -51.59305664 4.40443848 -50.44970703 3.80786133 C-32.47091507 -5.50098917 -18.49867753 -11.66220975 0 0 Z " fill="#89C7F0" transform="translate(849,641)"/>
<path d="M0 0 C9.33694193 4.38682646 18.13347228 6.37327339 28.44140625 6.09375 C29.91401161 6.07671021 29.91401161 6.07671021 31.41636658 6.05932617 C34.5175897 6.02307204 37.61792087 5.96722612 40.71875 5.90625 C44.81378295 5.82586141 48.90837324 5.76618641 53.00390625 5.71875 C54.38401634 5.68140747 54.38401634 5.68140747 55.79200745 5.64331055 C64.729339 5.54320145 72.51616559 7.41387738 79.65625 12.90625 C81.39366756 14.64366756 80.9109259 16.91350511 80.96875 19.28125 C80.81607231 33.61598867 72.38369721 47.7545038 62.65625 57.90625 C52.2108906 67.48940788 40.06412464 74.19790946 27.65625 80.90625 C26.74359375 81.4017334 25.8309375 81.8972168 24.890625 82.40771484 C22.25492142 83.83334808 19.61401167 85.24843966 16.96875 86.65625 C16.16091064 87.08687744 15.35307129 87.51750488 14.52075195 87.96118164 C13.77784912 88.35039795 13.03494629 88.73961426 12.26953125 89.140625 C11.61766846 89.48319336 10.96580566 89.82576172 10.29418945 90.17871094 C8.65625 90.90625 8.65625 90.90625 6.65625 90.90625 C6.65238281 89.92398438 6.65238281 89.92398438 6.6484375 88.921875 C6.22304569 78.88262839 2.84001845 70.45098127 -4.59375 63.53125 C-10.64121066 58.63858082 -17.19823315 54.89620113 -24.21875 51.59375 C-38.10556189 44.78176499 -47.64560568 35.20980616 -53.1328125 20.83984375 C-54.97122179 14.7730931 -54.77654727 8.58783223 -52.47265625 2.66796875 C-49.15522811 -3.427375 -43.90599207 -6.70640153 -37.33984375 -8.703125 C-24.1875877 -11.27695202 -11.61651271 -5.55572347 0 0 Z " fill="#EDA8D9" transform="translate(778.34375,516.09375)"/>
<path d="M0 0 C19.24346434 9.03925879 36.77313432 11.47365192 57.0625 4.5625 C58.39150405 4.21230417 59.72310909 3.87059234 61.0625 3.5625 C61.46339844 4.24054687 61.86429688 4.91859375 62.27734375 5.6171875 C70.28181733 18.72201726 79.36133129 29.30344538 94.76953125 33.10546875 C101.82162732 34.08422941 108.96213965 33.77340179 116.0625 33.5625 C113.01839348 35.98615168 109.893511 37.79263159 106.43359375 39.56640625 C105.3259668 40.13697754 104.21833984 40.70754883 103.07714844 41.29541016 C102.49380737 41.5937677 101.91046631 41.89212524 101.30944824 42.19952393 C98.85548597 43.45464873 96.40564678 44.71772472 93.95553589 45.98034668 C92.72261573 46.61560878 91.48948179 47.25045616 90.25613403 47.8848877 C85.25911132 50.45617696 80.28139652 53.06238152 75.3125 55.6875 C73.82552775 56.47006523 72.33854849 57.25261714 70.8515625 58.03515625 C68.26645624 59.39710082 65.68406988 60.76383382 63.10449219 62.13623047 C59.96837098 63.80463916 56.82813985 65.46511623 53.6875 67.125 C52.70555664 67.6504541 51.72361328 68.1759082 50.71191406 68.71728516 C49.78862305 69.20374512 48.86533203 69.69020508 47.9140625 70.19140625 C47.09760254 70.62525635 46.28114258 71.05910645 45.43994141 71.50610352 C42.95434028 72.61055988 40.7607253 73.23316075 38.0625 73.5625 C36.53515625 72.41015625 36.53515625 72.41015625 35.125 70.625 C24.54717654 59.42364168 10.94649201 56.60347577 -3.546875 53.203125 C-20.72141244 49.0435967 -33.09379361 39.32575795 -43.0625 24.75 C-50.73882973 13.74569091 -62.38380474 10.46902058 -74.9375 7.5625 C-71.46928162 4.65908054 -67.61850557 2.90208968 -63.5 1.125 C-62.79568848 0.81933105 -62.09137695 0.51366211 -61.36572266 0.19873047 C-40.10154945 -8.84465354 -21.11296517 -9.94567735 0 0 Z " fill="#EDA7D9" transform="translate(546.9375,637.4375)"/>
<path d="M0 0 C5.64560374 2.86018774 10.94961846 6.11318978 16.25 9.5625 C27.27926253 16.68654866 38.92325711 20.20540768 51.578125 23.44921875 C64.83071113 27.01613821 77.00532611 31.13797808 84.25 43.4375 C87.06673961 48.69701664 89.67666143 54.05569548 92.25 59.4375 C86.52978574 67.71433735 79.88347662 74.07602527 70.0234375 76.96484375 C54.62163509 79.58965796 43.38066101 76.40032574 30.60107422 67.73461914 C22.31904505 62.27130201 12.12782075 59.28177258 2.1875 59.3125 C1.35089844 59.30992187 0.51429688 59.30734375 -0.34765625 59.3046875 C-2.61720328 59.43015839 -4.57342657 59.80413221 -6.75 60.4375 C-7.42804688 59.60347656 -8.10609375 58.76945312 -8.8046875 57.91015625 C-17.13543152 47.78098625 -25.64913939 39.59371162 -36.83227539 32.6796875 C-42.7596111 28.94665722 -48.02046983 24.52857368 -49.75 17.4375 C-50.6268854 10.97047015 -49.13773288 7.16455195 -45.60546875 1.7109375 C-34.17040065 -12.30003015 -13.96816676 -6.88218128 0 0 Z " fill="#88C7F0" transform="translate(472.75,336.5625)"/>
<path d="M0 0 C5.7204191 2.98721708 10.31349416 7.11694229 15 11.5 C24.72515063 20.59466092 31.73042724 24.72830729 45.0859375 25.28076172 C60.86554863 25.94862684 71.92205704 30.56901558 82.88671875 42.0390625 C87.5510928 46.36718778 93.32261302 49.21339263 99 52 C96.71697726 54.55026313 94.52350454 55.88336422 91.421875 57.3046875 C90.51574463 57.72097412 89.60961426 58.13726074 88.67602539 58.56616211 C87.71043701 58.99807861 86.74484863 59.42999512 85.75 59.875 C84.75798584 60.32045166 83.76597168 60.76590332 82.74389648 61.22485352 C52.84046918 74.46008185 22.03535769 78.27244656 -9 67 C-10.67120704 66.3447983 -12.33995563 65.68298968 -14 65 C-13.01 64.505 -13.01 64.505 -12 64 C-13.07026586 48.25971068 -17.63854534 38.70351437 -27.21655273 26.21240234 C-31.50649438 20.57720117 -33.62910051 16.29756587 -33 9 C-31.77088099 4.54444357 -30.25020806 1.78419722 -26.5625 -0.9375 C-18.44135002 -5.45256136 -8.1770478 -3.55287981 0 0 Z " fill="#579CE3" transform="translate(397,479)"/>
<path d="M0 0 C1.66482422 -0.07347656 1.66482422 -0.07347656 3.36328125 -0.1484375 C14.99367106 0.58705833 26.1290621 7.39510091 36.125 12.875 C37.43308215 13.58251381 38.74151906 14.2893721 40.05029297 14.99560547 C49.145137 19.91879896 58.1582124 24.98531485 67.13867188 30.11401367 C73.55040607 33.76811928 80.00795973 37.229152 86.6875 40.375 C86.11738965 43.71627965 85.19360936 45.24335761 82.625 47.4375 C81.80322266 48.16646484 81.80322266 48.16646484 80.96484375 48.91015625 C74.75688104 52.9032712 68.89823981 53.8224077 61.625 53.625 C60.4793457 53.61726562 60.4793457 53.61726562 59.31054688 53.609375 C54.68549243 53.54607229 50.26818983 53.04863086 45.6875 52.375 C30.29800822 51.31782196 20.34310069 54.30864583 7.671875 63.5078125 C0.98039439 67.69436712 -4.97883261 68.88165758 -12.8125 68.8125 C-13.61558594 68.83248047 -14.41867188 68.85246094 -15.24609375 68.87304688 C-20.94563546 68.86842812 -25.69109553 67.88055891 -30.3125 64.375 C-31.3125 62.25390625 -31.3125 62.25390625 -31.3125 59.9375 C-31.32925781 59.05707031 -31.34601563 58.17664063 -31.36328125 57.26953125 C-31.34652344 56.31433594 -31.32976562 55.35914063 -31.3125 54.375 C-31.34730469 53.36824219 -31.38210937 52.36148438 -31.41796875 51.32421875 C-31.79928219 36.45299446 -30.10704731 21.16509255 -20.31640625 9.38671875 C-14.3737199 3.42086403 -8.42484916 0.2480703 0 0 Z " fill="#569CE3" transform="translate(191.3125,491.625)"/>
<path d="M0 0 C9.16450777 6.24299485 13.28259475 15.53039411 15.43359375 26.08984375 C15.8544119 30.97133434 15.82577674 35.81876698 15.74609375 40.71484375 C12.73096534 39.7127966 9.71813974 38.70530989 6.7109375 37.6796875 C5.71191406 37.34066406 4.71289062 37.00164062 3.68359375 36.65234375 C2.68199219 36.31074219 1.68039062 35.96914063 0.6484375 35.6171875 C-12.1485637 31.63857744 -25.11347281 32.97824336 -36.9140625 39.0703125 C-39.43914703 40.39884384 -41.94895611 41.74676271 -44.44213867 43.13427734 C-55.58909323 49.293313 -67.05716771 50.73148427 -79.35864258 47.22607422 C-88.73409407 44.27351512 -97.47540589 40.10526315 -106.25390625 35.71484375 C-105.59608154 35.37340332 -104.93825684 35.03196289 -104.26049805 34.68017578 C-96.58878014 30.69720718 -88.92045882 26.70774486 -81.25390625 22.71484375 C-79.87235352 21.99603027 -79.87235352 21.99603027 -78.46289062 21.26269531 C-70.21884229 16.96931679 -62.02116636 12.62353836 -53.94140625 8.02734375 C-48.91030935 5.17075702 -43.85078027 2.3962695 -38.69140625 -0.22265625 C-37.61761719 -0.76792969 -36.54382813 -1.31320312 -35.4375 -1.875 C-23.23907967 -7.27822667 -11.54660362 -6.58376532 0 0 Z " fill="#EDA8D9" transform="translate(845.25390625,414.28515625)"/>
<path d="M0 0 C5.69312853 3.83272044 11.64386875 8.55488213 14.1796875 15.140625 C14.59375 17.9375 14.59375 17.9375 14.8046875 20.890625 C14.87945312 21.87546875 14.95421875 22.8603125 15.03125 23.875 C15.08023438 24.62265625 15.12921875 25.3703125 15.1796875 26.140625 C9.36274073 24.51149658 4.36609489 21.67768373 -0.8828125 18.765625 C-1.83494629 18.24194336 -2.78708008 17.71826172 -3.76806641 17.17871094 C-13.849972 11.61319409 -23.84654928 5.89721089 -33.8203125 0.140625 C-33.8203125 -0.519375 -33.8203125 -1.179375 -33.8203125 -1.859375 C-22.39016086 -7.45781662 -10.91725743 -6.0898987 0 0 Z " fill="#8CC8F0" transform="translate(422.8203125,865.859375)"/>
<path d="M0 0 C8.45451101 2.56197303 12.8931616 9.09344812 17.734375 16.03125 C21.65571999 21.16956412 26.32352848 25.55563276 31 30 C26.81196978 30 24.85151443 27.80124028 22 25 C20.03502049 22.74666292 18.22922462 20.3923741 16.4375 18 C12.31077865 12.53661784 8.07815594 7.5402378 2.6875 3.25 C1.800625 2.5075 0.91375 1.765 0 1 C0 0.67 0 0.34 0 0 Z " fill="#78C8F1" transform="translate(491,651)"/>
<path d="M0 0 C0.99 0.33 1.98 0.66 3 1 C2.39671875 1.46148437 1.7934375 1.92296875 1.171875 2.3984375 C-6.09869442 8.33216028 -8.85814301 14.02067648 -11 23 C-11.99 23 -12.98 23 -14 23 C-14 21.02 -14 19.04 -14 17 C-13.34 16.67 -12.68 16.34 -12 16 C-11.22626093 14.649579 -10.50475013 13.26895078 -9.8125 11.875 C-7.24682514 7.07396172 -4.03106045 3.61285245 0 0 Z " fill="#F6A3D6" transform="translate(286,463)"/>
<path d="M0 0 C0.680625 0.70125 1.36125 1.4025 2.0625 2.125 C3.03941274 3.08563086 4.01875902 4.04379068 5 5 C5.4846875 5.49242187 5.969375 5.98484375 6.46875 6.4921875 C10.90183573 10.68623429 15.65288486 12.76125058 21.328125 14.921875 C24 16 24 16 27 18 C17.90476096 17.65678343 10.33865263 13.68696411 4 7.1875 C3.484375 6.60355469 2.96875 6.01960937 2.4375 5.41796875 C0.94404026 3.73629929 0.94404026 3.73629929 -2 3 C-2 2.34 -2 1.68 -2 1 C-1.34 0.67 -0.68 0.34 0 0 Z " fill="#3497E4" transform="translate(640,729)"/>
<path d="M0 0 C2.16075985 2.75922104 3.88608143 5.5524 5.5625 8.625 C9.11855843 14.67480067 13.88831734 19.25199437 19 24 C14.99253857 24 13.93263398 22.66522055 11 20 C9.56298202 18.2576815 8.18771001 16.46279402 6.875 14.625 C6.21242188 13.70976563 5.54984375 12.79453125 4.8671875 11.8515625 C0 4.41841004 0 4.41841004 0 0 Z " fill="#94D2F4" transform="translate(695,589)"/>
<path d="M0 0 C0.33 0.99 0.66 1.98 1 3 C3.31 3.33 5.62 3.66 8 4 C5.10324519 6.41396234 2.40212299 8.38617243 -1 10 C-1.02689216 8.52093108 -1.04634621 7.04172517 -1.0625 5.5625 C-1.07410156 4.73878906 -1.08570313 3.91507812 -1.09765625 3.06640625 C-1 1 -1 1 0 0 Z " fill="#82CFF2" transform="translate(163,365)"/>
<path d="M0 0 C5.52677733 -0.19392201 9.75614911 0.2520497 15 2 C15 2.66 15 3.32 15 4 C15.66 4.33 16.32 4.66 17 5 C11.24237834 3.91103333 5.60752181 2.70663707 0 1 C0 0.67 0 0.34 0 0 Z " fill="#F2B0DD" transform="translate(533,97)"/>
<path d="M0 0 C0.33 0 0.66 0 1 0 C1 3.96 1 7.92 1 12 C-4.53846154 11.38461538 -4.53846154 11.38461538 -6.875 9.4375 C-7.24625 8.963125 -7.6175 8.48875 -8 8 C-7.34 7.67 -6.68 7.34 -6 7 C-3.96855359 7.93446535 -1.96466413 8.93224776 0 10 C0 6.7 0 3.4 0 0 Z " fill="#94CFF4" transform="translate(384,531)"/>
<path d="M0 0 C0.73605469 0.08121094 1.47210938 0.16242187 2.23046875 0.24609375 C2.23046875 0.57609375 2.23046875 0.90609375 2.23046875 1.24609375 C1.555 1.33246094 0.87953125 1.41882813 0.18359375 1.5078125 C-5.71617361 2.37055178 -5.71617361 2.37055178 -10.39453125 5.87109375 C-10.84828125 6.65484375 -11.30203125 7.43859375 -11.76953125 8.24609375 C-12.42953125 7.91609375 -13.08953125 7.58609375 -13.76953125 7.24609375 C-10.17284721 0.30077284 -7.72753636 -0.5001972 0 0 Z " fill="#4094E2" transform="translate(345.76953125,677.75390625)"/>
<path d="M0 0 C0.680625 0.70125 1.36125 1.4025 2.0625 2.125 C5.20780513 5.27934337 8.5888386 8.13934304 12 11 C11.01 11.33 10.02 11.66 9 12 C4.88850812 9.36442828 2.45572802 6.18383292 0 2 C0 1.34 0 0.68 0 0 Z " fill="#92CFF3" transform="translate(525,485)"/>
<path d="M0 0 C2.97 1.98 5.94 3.96 9 6 C8.01 6.495 8.01 6.495 7 7 C6.236875 6.484375 5.47375 5.96875 4.6875 5.4375 C2.05777136 3.62889153 2.05777136 3.62889153 -0.8125 4.8125 C-1.534375 5.204375 -2.25625 5.59625 -3 6 C-1.125 1.125 -1.125 1.125 0 0 Z " fill="#3D97E4" transform="translate(564,396)"/>
<path d="M0 0 C0.33 0 0.66 0 1 0 C1.33 2.97 1.66 5.94 2 9 C0.02 8.34 -1.96 7.68 -4 7 C-3.34 6.34 -2.68 5.68 -2 5 C-1.67 5 -1.34 5 -1 5 C-0.67 3.35 -0.34 1.7 0 0 Z " fill="#E1ADDA" transform="translate(670,342)"/>
<path d="M0 0 C1.65 0 3.3 0 5 0 C5 0.33 5 0.66 5 1 C3.35 1 1.7 1 0 1 C0 0.67 0 0.34 0 0 Z " fill="#6CAAE6" transform="translate(430,771)"/>
<path d="M0 0 C0.33 0 0.66 0 1 0 C1 1.65 1 3.3 1 5 C0.67 5 0.34 5 0 5 C0 3.35 0 1.7 0 0 Z " fill="#D5ACD5" transform="translate(160,571)"/>
<path d="M0 0 C0.66 0.66 1.32 1.32 2 2 C1.34 2 0.68 2 0 2 C0 1.34 0 0.68 0 0 Z " fill="#689FD3" transform="translate(363,844)"/>
<path d="M0 0 C3 1 3 1 3 1 Z " fill="#A0C7E8" transform="translate(834,633)"/>
<path d="M0 0 C3 1 3 1 3 1 Z " fill="#80AFE4" transform="translate(393,549)"/>
<path d="M0 0 C0.66 0 1.32 0 2 0 C1.67 0.66 1.34 1.32 1 2 C0.67 1.34 0.34 0.68 0 0 Z " fill="#7AA8E1" transform="translate(229,504)"/>
<path d="M0 0 C3 1 3 1 3 1 Z " fill="#88AADF" transform="translate(195,490)"/>
<path d="M0 0 C2 1 2 1 2 1 Z " fill="#91C1E4" transform="translate(515,934)"/>
<path d="M0 0 C2 1 2 1 2 1 Z " fill="#90C2E4" transform="translate(513,933)"/>
<path d="M0 0 C2 1 2 1 2 1 Z " fill="#91C2E6" transform="translate(627,902)"/>
<path d="M0 0 C2 1 2 1 2 1 Z " fill="#66A4E4" transform="translate(401,765)"/>
<path d="M0 0 C2 1 2 1 2 1 Z " fill="#D7B4DE" transform="translate(652,678)"/>
<path d="M0 0 C2 1 2 1 2 1 Z " fill="#759ED8" transform="translate(225,676)"/>
<path d="M0 0 C2 1 2 1 2 1 Z " fill="#7B9FD6" transform="translate(216,671)"/>
<path d="" fill="#9EC6E9" transform="translate(0,0)"/>
<path d="M0 0 C2 1 2 1 2 1 Z " fill="#A8C2E5" transform="translate(680,663)"/>
<path d="M0 0 C2 1 2 1 2 1 Z " fill="#A9C5E8" transform="translate(683,662)"/>
<path d="M0 0 C2 1 2 1 2 1 Z " fill="#72AAE4" transform="translate(439,593)"/>
<path d="M0 0 C2 1 2 1 2 1 Z " fill="#82ADE1" transform="translate(406,593)"/>
<path d="M0 0 C2 1 2 1 2 1 Z " fill="#9DBFE7" transform="translate(363,535)"/>
<path d="M0 0 C2 1 2 1 2 1 Z " fill="#D6ABD5" transform="translate(192,447)"/>
<path d="" fill="#D7ACD4" transform="translate(0,0)"/>
<path d="" fill="#D5AACF" transform="translate(0,0)"/>
<path d="" fill="#659EDA" transform="translate(0,0)"/>
<path d="M0 0 C2 1 2 1 2 1 Z " fill="#6CA1DB" transform="translate(329,176)"/>
<path d="M0 0 C2 1 2 1 2 1 Z " fill="#9BC0E3" transform="translate(666,160)"/>
<path d="M0 0 C2 1 2 1 2 1 Z " fill="#98C1E3" transform="translate(636,144)"/>
<path d="M0 0 C2 1 2 1 2 1 Z " fill="#D6A6CE" transform="translate(448,112)"/>
<path d="M0 0 C2 1 2 1 2 1 Z " fill="#DDA9D1" transform="translate(489,96)"/>
<path d="M0 0 C2 1 2 1 2 1 Z " fill="#DFA7D0" transform="translate(516,92)"/>
<path d="M0 0 C2 1 2 1 2 1 Z " fill="#DDA8CF" transform="translate(508,92)"/>
<path d="" fill="#8FBFE2" transform="translate(0,0)"/>
<path d="" fill="#91C3E4" transform="translate(0,0)"/>
<path d="" fill="#8FC0E3" transform="translate(0,0)"/>
<path d="" fill="#8CBDE1" transform="translate(0,0)"/>
<path d="" fill="#8CBCE2" transform="translate(0,0)"/>
<path d="" fill="#8ABCE2" transform="translate(0,0)"/>
<path d="" fill="#8EC1E3" transform="translate(0,0)"/>
<path d="" fill="#73AADD" transform="translate(0,0)"/>
<path d="" fill="#76AFDF" transform="translate(0,0)"/>
<path d="" fill="#77ACE0" transform="translate(0,0)"/>
<path d="" fill="#8EC0E5" transform="translate(0,0)"/>
<path d="" fill="#8EC2E5" transform="translate(0,0)"/>
<path d="" fill="#8DC0E5" transform="translate(0,0)"/>
<path d="" fill="#8FC0E4" transform="translate(0,0)"/>
<path d="" fill="#8EC1E6" transform="translate(0,0)"/>
<path d="" fill="#87B9E2" transform="translate(0,0)"/>
<path d="" fill="#87BBE3" transform="translate(0,0)"/>
<path d="" fill="#8ABAE4" transform="translate(0,0)"/>
<path d="" fill="#87BBE2" transform="translate(0,0)"/>
<path d="" fill="#86B9E1" transform="translate(0,0)"/>
<path d="" fill="#8ABDE2" transform="translate(0,0)"/>
<path d="" fill="#88B7E0" transform="translate(0,0)"/>
<path d="" fill="#86B6E1" transform="translate(0,0)"/>
<path d="" fill="#87B6DF" transform="translate(0,0)"/>
<path d="" fill="#83B4DF" transform="translate(0,0)"/>
<path d="" fill="#86B6E0" transform="translate(0,0)"/>
<path d="" fill="#76A9D8" transform="translate(0,0)"/>
<path d="" fill="#78ABDB" transform="translate(0,0)"/>
<path d="" fill="#76A6D8" transform="translate(0,0)"/>
<path d="" fill="#74A8D4" transform="translate(0,0)"/>
<path d="" fill="#77A9D9" transform="translate(0,0)"/>
<path d="" fill="#71A7DC" transform="translate(0,0)"/>
<path d="" fill="#699DD0" transform="translate(0,0)"/>
<path d="" fill="#669ED4" transform="translate(0,0)"/>
<path d="" fill="#76A3D6" transform="translate(0,0)"/>
<path d="" fill="#79A4D8" transform="translate(0,0)"/>
<path d="" fill="#86A3D1" transform="translate(0,0)"/>
<path d="" fill="#8FA6D6" transform="translate(0,0)"/>
<path d="" fill="#8EA6D6" transform="translate(0,0)"/>
<path d="" fill="#BAACD4" transform="translate(0,0)"/>
<path d="" fill="#C0AAD4" transform="translate(0,0)"/>
<path d="" fill="#68A9E6" transform="translate(0,0)"/>
<path d="" fill="#69A5E5" transform="translate(0,0)"/>
<path d="" fill="#6D9ED6" transform="translate(0,0)"/>
<path d="" fill="#68A7E4" transform="translate(0,0)"/>
<path d="" fill="#88C0EA" transform="translate(0,0)"/>
<path d="" fill="#69A6E5" transform="translate(0,0)"/>
<path d="" fill="#6CA3D6" transform="translate(0,0)"/>
<path d="" fill="#68A6E3" transform="translate(0,0)"/>
<path d="" fill="#D9A8D2" transform="translate(0,0)"/>
<path d="" fill="#D5AAD0" transform="translate(0,0)"/>
<path d="" fill="#94C8EC" transform="translate(0,0)"/>
<path d="" fill="#94C9EE" transform="translate(0,0)"/>
<path d="" fill="#94C8ED" transform="translate(0,0)"/>
<path d="" fill="#70ABE7" transform="translate(0,0)"/>
<path d="" fill="#6FAAE6" transform="translate(0,0)"/>
<path d="" fill="#6DABE5" transform="translate(0,0)"/>
<path d="" fill="#D7A9D1" transform="translate(0,0)"/>
<path d="" fill="#66A6E3" transform="translate(0,0)"/>
<path d="" fill="#67A8E4" transform="translate(0,0)"/>
<path d="" fill="#8FC3EA" transform="translate(0,0)"/>
<path d="" fill="#90C5EB" transform="translate(0,0)"/>
<path d="" fill="#90C1EA" transform="translate(0,0)"/>
<path d="" fill="#7AB2E7" transform="translate(0,0)"/>
<path d="" fill="#66A4E3" transform="translate(0,0)"/>
<path d="" fill="#BAB0D3" transform="translate(0,0)"/>
<path d="" fill="#83B2E4" transform="translate(0,0)"/>
<path d="" fill="#B4B5D7" transform="translate(0,0)"/>
<path d="" fill="#88BEEB" transform="translate(0,0)"/>
<path d="" fill="#81B9E5" transform="translate(0,0)"/>
<path d="" fill="#8ABEEA" transform="translate(0,0)"/>
<path d="" fill="#8ABFED" transform="translate(0,0)"/>
<path d="" fill="#80AFE5" transform="translate(0,0)"/>
<path d="" fill="#81B0E4" transform="translate(0,0)"/>
<path d="" fill="#93C6ED" transform="translate(0,0)"/>
<path d="" fill="#93C5EC" transform="translate(0,0)"/>
<path d="" fill="#93C6EC" transform="translate(0,0)"/>
<path d="" fill="#85A8E0" transform="translate(0,0)"/>
<path d="" fill="#8BABE5" transform="translate(0,0)"/>
<path d="" fill="#93C6EB" transform="translate(0,0)"/>
<path d="" fill="#97C8EE" transform="translate(0,0)"/>
<path d="" fill="#98C4E8" transform="translate(0,0)"/>
<path d="" fill="#9AC5EB" transform="translate(0,0)"/>
<path d="" fill="#9AC5EB" transform="translate(0,0)"/>
<path d="" fill="#9AC5EC" transform="translate(0,0)"/>
<path d="" fill="#A9BEE8" transform="translate(0,0)"/>
<path d="" fill="#AABEE6" transform="translate(0,0)"/>
<path d="" fill="#ADBCE7" transform="translate(0,0)"/>
<path d="" fill="#B3BFE5" transform="translate(0,0)"/>
<path d="" fill="#E3AED8" transform="translate(0,0)"/>
<path d="" fill="#C9B6DD" transform="translate(0,0)"/>
<path d="" fill="#67A2E0" transform="translate(0,0)"/>
<path d="" fill="#67A0DF" transform="translate(0,0)"/>
<path d="" fill="#67A1DD" transform="translate(0,0)"/>
<path d="" fill="#E0B2DD" transform="translate(0,0)"/>
<path d="" fill="#68A2DD" transform="translate(0,0)"/>
<path d="" fill="#DFB0DD" transform="translate(0,0)"/>
<path d="" fill="#D9AFD9" transform="translate(0,0)"/>
<path d="" fill="#DEB5DD" transform="translate(0,0)"/>
<path d="" fill="#E1B2DC" transform="translate(0,0)"/>
<path d="" fill="#E3B1DC" transform="translate(0,0)"/>
<path d="" fill="#68A1DC" transform="translate(0,0)"/>
<path d="" fill="#DFB0D9" transform="translate(0,0)"/>
<path d="" fill="#6BA0DB" transform="translate(0,0)"/>
<path d="" fill="#DDB4DE" transform="translate(0,0)"/>
<path d="" fill="#73A2DD" transform="translate(0,0)"/>
<path d="" fill="#70A2DB" transform="translate(0,0)"/>
<path d="" fill="#70A2DB" transform="translate(0,0)"/>
<path d="" fill="#73A0D3" transform="translate(0,0)"/>
<path d="" fill="#D3B2DB" transform="translate(0,0)"/>
<path d="" fill="#D6B4DE" transform="translate(0,0)"/>
<path d="" fill="#D7B4DD" transform="translate(0,0)"/>
<path d="" fill="#BDBEE6" transform="translate(0,0)"/>
<path d="" fill="#CABCE1" transform="translate(0,0)"/>
<path d="" fill="#75A1D8" transform="translate(0,0)"/>
<path d="" fill="#7CA0D5" transform="translate(0,0)"/>
<path d="" fill="#A0C6E9" transform="translate(0,0)"/>
<path d="" fill="#85A0D7" transform="translate(0,0)"/>
<path d="" fill="#99C5E4" transform="translate(0,0)"/>
<path d="" fill="#9FC4E7" transform="translate(0,0)"/>
<path d="" fill="#8B9FCF" transform="translate(0,0)"/>
<path d="" fill="#9DC9EB" transform="translate(0,0)"/>
<path d="" fill="#8D9FCE" transform="translate(0,0)"/>
<path d="" fill="#9BC8EA" transform="translate(0,0)"/>
<path d="" fill="#96C5E2" transform="translate(0,0)"/>
<path d="" fill="#A0C4E8" transform="translate(0,0)"/>
<path d="" fill="#9EC4E8" transform="translate(0,0)"/>
<path d="" fill="#9CC8EC" transform="translate(0,0)"/>
<path d="" fill="#99C8EB" transform="translate(0,0)"/>
<path d="" fill="#CDA7D1" transform="translate(0,0)"/>
<path d="" fill="#CBA8CE" transform="translate(0,0)"/>
<path d="" fill="#D0A7CF" transform="translate(0,0)"/>
<path d="" fill="#A1C5EA" transform="translate(0,0)"/>
<path d="" fill="#A3C7E8" transform="translate(0,0)"/>
<path d="" fill="#D6A8D1" transform="translate(0,0)"/>
<path d="" fill="#D4A8D0" transform="translate(0,0)"/>
<path d="" fill="#D5A6CF" transform="translate(0,0)"/>
<path d="" fill="#D7AAD1" transform="translate(0,0)"/>
<path d="" fill="#95B2DE" transform="translate(0,0)"/>
<path d="" fill="#D9AAD2" transform="translate(0,0)"/>
<path d="" fill="#74ABE3" transform="translate(0,0)"/>
<path d="" fill="#89B0E1" transform="translate(0,0)"/>
<path d="" fill="#8FA9D9" transform="translate(0,0)"/>
<path d="" fill="#D8B2DA" transform="translate(0,0)"/>
<path d="" fill="#D9ADD6" transform="translate(0,0)"/>
<path d="" fill="#D8ADD6" transform="translate(0,0)"/>
<path d="" fill="#D9ABD3" transform="translate(0,0)"/>
<path d="" fill="#85BBE8" transform="translate(0,0)"/>
<path d="" fill="#86BEEB" transform="translate(0,0)"/>
<path d="" fill="#D4ACD7" transform="translate(0,0)"/>
<path d="" fill="#D5ABD4" transform="translate(0,0)"/>
<path d="" fill="#D4ACD4" transform="translate(0,0)"/>
<path d="" fill="#94C7ED" transform="translate(0,0)"/>
<path d="" fill="#6BAAE6" transform="translate(0,0)"/>
<path d="" fill="#D7B4DD" transform="translate(0,0)"/>
<path d="" fill="#94BBE5" transform="translate(0,0)"/>
<path d="" fill="#C7A9D3" transform="translate(0,0)"/>
<path d="" fill="#99BCE8" transform="translate(0,0)"/>
<path d="" fill="#9CBEE8" transform="translate(0,0)"/>
<path d="" fill="#9CBFEA" transform="translate(0,0)"/>
<path d="" fill="#9EC0E9" transform="translate(0,0)"/>
<path d="" fill="#97ADE0" transform="translate(0,0)"/>
<path d="" fill="#9FBFE7" transform="translate(0,0)"/>
<path d="" fill="#A2BDE7" transform="translate(0,0)"/>
<path d="" fill="#A6C1E6" transform="translate(0,0)"/>
<path d="" fill="#7DABE1" transform="translate(0,0)"/>
<path d="" fill="#8EA8DD" transform="translate(0,0)"/>
<path d="" fill="#73AEE6" transform="translate(0,0)"/>
<path d="" fill="#73B0E8" transform="translate(0,0)"/>
<path d="" fill="#76A7E1" transform="translate(0,0)"/>
<path d="" fill="#64A5E4" transform="translate(0,0)"/>
<path d="" fill="#67A6E2" transform="translate(0,0)"/>
<path d="" fill="#A6BCE6" transform="translate(0,0)"/>
<path d="" fill="#63A6E6" transform="translate(0,0)"/>
<path d="" fill="#67A3E0" transform="translate(0,0)"/>
<path d="" fill="#60A3E7" transform="translate(0,0)"/>
<path d="" fill="#ADBCE6" transform="translate(0,0)"/>
<path d="" fill="#6FADE8" transform="translate(0,0)"/>
<path d="" fill="#B1B9E6" transform="translate(0,0)"/>
<path d="" fill="#6FACE8" transform="translate(0,0)"/>
<path d="" fill="#8BABE0" transform="translate(0,0)"/>
<path d="" fill="#8AACDE" transform="translate(0,0)"/>
<path d="" fill="#89A8DF" transform="translate(0,0)"/>
<path d="" fill="#6AA3DF" transform="translate(0,0)"/>
<path d="" fill="#66A8E5" transform="translate(0,0)"/>
<path d="" fill="#BBB3E0" transform="translate(0,0)"/>
<path d="" fill="#63A6E6" transform="translate(0,0)"/>
<path d="" fill="#65A4E4" transform="translate(0,0)"/>
<path d="" fill="#68A4E4" transform="translate(0,0)"/>
<path d="" fill="#D1AFDC" transform="translate(0,0)"/>
<path d="" fill="#63A4E7" transform="translate(0,0)"/>
<path d="" fill="#D5ADDE" transform="translate(0,0)"/>
<path d="" fill="#D4B0DC" transform="translate(0,0)"/>
<path d="" fill="#D3B0DC" transform="translate(0,0)"/>
<path d="" fill="#5CA0E5" transform="translate(0,0)"/>
<path d="" fill="#D4AFDC" transform="translate(0,0)"/>
<path d="" fill="#62A4E5" transform="translate(0,0)"/>
<path d="" fill="#60A3E2" transform="translate(0,0)"/>
<path d="" fill="#BEA7D7" transform="translate(0,0)"/>
<path d="" fill="#D6B1DC" transform="translate(0,0)"/>
<path d="" fill="#63A6E5" transform="translate(0,0)"/>
<path d="" fill="#62A5E4" transform="translate(0,0)"/>
<path d="" fill="#D4AFDA" transform="translate(0,0)"/>
<path d="" fill="#D6AFD9" transform="translate(0,0)"/>
<path d="" fill="#D5AED8" transform="translate(0,0)"/>
<path d="" fill="#C4ADDD" transform="translate(0,0)"/>
<path d="" fill="#D3AED8" transform="translate(0,0)"/>
<path d="" fill="#63A5E5" transform="translate(0,0)"/>
<path d="" fill="#D6AFD5" transform="translate(0,0)"/>
<path d="" fill="#D5ACD5" transform="translate(0,0)"/>
<path d="" fill="#DAACD6" transform="translate(0,0)"/>
<path d="" fill="#D9ADD4" transform="translate(0,0)"/>
<path d="" fill="#D0A8D0" transform="translate(0,0)"/>
<path d="" fill="#D8ADD5" transform="translate(0,0)"/>
<path d="" fill="#6BA6E5" transform="translate(0,0)"/>
<path d="" fill="#69A7E6" transform="translate(0,0)"/>
<path d="" fill="#D8ACD5" transform="translate(0,0)"/>
<path d="" fill="#D7AFD7" transform="translate(0,0)"/>
<path d="" fill="#D8ABD3" transform="translate(0,0)"/>
<path d="" fill="#6AA7E4" transform="translate(0,0)"/>
<path d="" fill="#6EA7E4" transform="translate(0,0)"/>
<path d="" fill="#6CA5E4" transform="translate(0,0)"/>
<path d="" fill="#D7AAD2" transform="translate(0,0)"/>
<path d="" fill="#D7ADD4" transform="translate(0,0)"/>
<path d="" fill="#D7ABD4" transform="translate(0,0)"/>
<path d="" fill="#82ABE1" transform="translate(0,0)"/>
<path d="" fill="#93B9E8" transform="translate(0,0)"/>
<path d="" fill="#A4C4E8" transform="translate(0,0)"/>
<path d="" fill="#A4C2E7" transform="translate(0,0)"/>
<path d="" fill="#A0C4E7" transform="translate(0,0)"/>
<path d="" fill="#D7A7CE" transform="translate(0,0)"/>
<path d="" fill="#699DCF" transform="translate(0,0)"/>
<path d="" fill="#6DA2D7" transform="translate(0,0)"/>
<path d="" fill="#68A2DB" transform="translate(0,0)"/>
<path d="" fill="#DDA7CE" transform="translate(0,0)"/>
<path d="" fill="#DAA7D0" transform="translate(0,0)"/>
<path d="" fill="#659FD8" transform="translate(0,0)"/>
<path d="" fill="#64A0D8" transform="translate(0,0)"/>
<path d="" fill="#679FD9" transform="translate(0,0)"/>
<path d="" fill="#66A2DE" transform="translate(0,0)"/>
<path d="" fill="#68A4DB" transform="translate(0,0)"/>
<path d="" fill="#DAABD4" transform="translate(0,0)"/>
<path d="" fill="#B4B9DD" transform="translate(0,0)"/>
<path d="" fill="#B6BADB" transform="translate(0,0)"/>
<path d="" fill="#A0BFDF" transform="translate(0,0)"/>
<path d="" fill="#9AC2E4" transform="translate(0,0)"/>
<path d="" fill="#9BBFE1" transform="translate(0,0)"/>
<path d="" fill="#6EA1DB" transform="translate(0,0)"/>
<path d="" fill="#70A1D6" transform="translate(0,0)"/>
<path d="" fill="#98C0E0" transform="translate(0,0)"/>
<path d="" fill="#9BC0DF" transform="translate(0,0)"/>
<path d="" fill="#9AC0E3" transform="translate(0,0)"/>
<path d="" fill="#9CC3E1" transform="translate(0,0)"/>
<path d="" fill="#9FBFE1" transform="translate(0,0)"/>
<path d="" fill="#D5A7D1" transform="translate(0,0)"/>
<path d="" fill="#DDA8D1" transform="translate(0,0)"/>
<path d="" fill="#DBA5D0" transform="translate(0,0)"/>
<path d="" fill="#E1A8D0" transform="translate(0,0)"/>
</svg>
